<svg width="103" height="153" viewBox="0 0 103 153" fill="none" xmlns="http://www.w3.org/2000/svg">
<mask id="mask0_1592_22809" style="mask-type:alpha" maskUnits="userSpaceOnUse" x="0" y="0" width="103" height="145">
<rect width="102.849" height="145" fill="#D9D9D9"/>
</mask>
<g mask="url(#mask0_1592_22809)">
<path d="M36.3143 57.055C36.8333 47.5683 55.2877 47.5683 62.9866 50.3942C70.6856 53.22 69.7052 60.8324 69.7052 60.8324" stroke="#313858" stroke-width="1.6076" stroke-miterlimit="10"/>
<path d="M77.5195 59.5922C75.9624 66.5414 74.4053 72.9716 72.8771 78.9116H37.4389C36.0548 72.4814 34.4977 65.5322 32.7388 58.0063C36.372 56.1897 41.1874 55.5841 42.8022 52.3834C43.3789 51.2012 43.5519 46.9048 43.5807 44.6557C43.6384 40.5611 43.2924 37.8218 43.2924 37.8218H62.8137C62.8137 37.8218 62.3523 43.733 62.6118 48.2889C62.756 50.7399 63.102 52.8448 63.8517 53.5368C66.1874 55.7571 72.9348 57.4007 77.5195 59.5922Z" fill="#EDBDA6"/>
<path d="M85.8816 233.871C86.1411 208.352 81.8159 184.448 81.9312 180.901C82.4214 164.898 81.5564 148.606 81.5564 148.606L53.5576 138.542L50.4434 201.345C50.4434 201.345 51.568 216.022 52.9232 233.871H85.8816Z" fill="#313858"/>
<path d="M18.0906 233.871H53.4135C54.1343 227.931 54.6245 224.067 54.6245 224.067L50.3858 138.542L23.6846 151.374C23.6846 151.374 17.8311 208.352 18.0906 233.871Z" fill="#313858"/>
<path d="M19.8784 170.953C42.5715 170.578 59.5265 174.096 81.9313 171.212C81.1816 150.307 81.1816 119.857 82.9982 105.988C85.5645 86.2933 87.1216 70.4628 87.1216 70.4628L65.9567 58.2368L60.9682 60.8608L52.6061 62.0142L42.6003 61.6105L36.7469 59.7362L21.3778 70.4628C21.3778 70.4628 17.8599 86.2933 20.4263 105.988C22.214 119.684 20.8588 150.595 19.8784 170.953Z" fill="#B5D8EA"/>
<path d="M42.8021 52.3834C42.6868 52.6141 42.5522 52.8256 42.3984 53.0178C48.6845 53.508 58.1712 52.2681 62.6406 48.9521C62.6214 48.7214 62.6118 48.5003 62.6118 48.2889C62.3523 43.733 62.8136 37.8218 62.8136 37.8218H43.2923C43.2923 37.8218 43.6384 40.5611 43.5807 44.6557C43.5518 46.9048 43.3788 51.2012 42.8021 52.3834Z" fill="#F7A281"/>
<path d="M14.8034 84.4768C16.7353 104.402 19.3882 117.522 19.071 135.803C18.8691 147.971 16.2163 202.643 16.2163 202.643C16.2163 202.643 32.8829 202.412 45.7433 196.818C54.3938 193.041 53.2404 166.657 52.7502 137.649C52.3754 115.993 36.6027 93.8482 35.2762 79.2577C34.6995 73.1447 36.8622 55.9014 36.8622 55.9014L22.5312 63.0524L14.8034 84.4768Z" fill="#6EAFCF"/>
<path d="M87.7559 79.5177C87.1792 97.7991 87.6694 106.392 87.2946 109.823C86.0258 121.674 84.9013 128.335 84.9589 138.572C85.1031 160.198 89.7455 201.663 89.7455 201.663C89.7455 201.663 65.7837 203.652 57.2485 196.328C47.6753 188.081 51.1643 138.312 52.7503 129.229C56.0951 110.054 63.8229 104.864 66.5911 85.9768C69.042 69.4255 67.2254 54.8062 67.2254 54.8062L84.8436 62.4474L87.7559 79.5177Z" fill="#6EAFCF"/>
<path d="M37.237 56.5072L40.4088 54.0273C40.4088 54.0273 42.312 55.9881 43.6384 56.9397C49.6649 61.2073 52.9809 61.6109 52.9809 61.6109C52.9809 61.6109 46.839 66.5129 43.9555 66.138C38.7076 65.4172 37.237 56.5072 37.237 56.5072Z" fill="#5F97B3"/>
<path d="M67.2542 55.9016L65.207 53.5371C65.207 53.5371 62.6118 56.1611 61.3142 57.0838C55.4319 61.2937 52.1447 61.6686 52.1447 61.6686C52.1447 61.6686 58.2 66.5129 60.997 66.138C66.1585 65.4171 67.2542 55.9016 67.2542 55.9016Z" fill="#5F97B3"/>
<path d="M60.4203 145.319C60.4203 146.443 59.4976 147.337 58.3731 147.337C57.2485 147.337 56.3546 146.443 56.3546 145.319C56.3546 144.194 57.2485 143.271 58.3731 143.271C59.4976 143.271 60.4203 144.194 60.4203 145.319Z" fill="#C0E7FA"/>
<path d="M41.3892 53.9985C41.3892 53.9985 39.6015 61.9281 42.3985 75.4228C44.1574 83.9292 44.8494 89.6385 46.6372 96.3282C51.3373 114.004 51.568 127.441 51.568 127.441L31.7584 74.7308L35.1609 70.5497L28.3558 67.2914C28.3558 67.2914 33.8056 57.6317 36.4296 55.7574C39.0248 53.8831 41.3892 53.9985 41.3892 53.9985Z" fill="#C0E7FA"/>
<path d="M65.207 53.5371C65.207 53.5371 66.4757 61.6397 63.8806 75.8266C61.2566 89.9845 58.0847 103.133 56.7007 107.978C52.8079 121.472 52.6061 128.566 52.6061 128.566C52.6061 128.566 71.3488 78.5947 75.0397 72.3087L71.32 69.454L75.5587 66.1957C75.5587 66.1957 71.5218 57.3433 68.8978 55.4691C66.2739 53.5948 65.207 53.5371 65.207 53.5371Z" fill="#C0E7FA"/>
<path d="M77.4042 120.607C78.1828 107.545 77.7791 93.9351 78.5576 85.0539C80.4319 64.4657 84.8436 62.4473 84.8436 62.4473C84.8436 62.4473 92.2254 65.8786 95.8009 86.265C96.7813 91.9743 99.9532 104.229 98.4826 120.982C97.358 133.612 95.1089 135.313 91.6199 136.87C86.8621 139.004 77.6349 141.224 73.1655 138.341C75.5299 130.123 77.2889 132.113 77.4042 120.607Z" fill="#6EAFCF"/>
<path d="M84.8436 62.4473C84.8436 62.4473 92.2254 65.8786 95.8009 86.265C96.7813 91.9743 99.9532 104.229 98.4826 120.982C97.358 133.612 95.1089 135.313 91.6199 136.87C86.8621 139.004 77.6349 141.224 73.1655 138.341" stroke="#C0E7FA" stroke-width="1.26556" stroke-linecap="round" stroke-linejoin="round"/>
<path d="M27.8656 120.607C27.0583 107.545 27.4908 93.935 26.6834 85.0538C24.8379 64.4657 22.5312 63.0527 22.5312 63.0527C22.5312 63.0527 13.7942 66.9455 10.853 81.536C9.69959 87.2165 6.32589 104.604 6.78725 120.982C7.13327 133.67 10.1609 136.813 13.6788 138.254C18.8114 140.359 33.575 138.283 37.237 137.649C34.8437 129.431 27.9521 132.113 27.8656 120.607Z" fill="#6EAFCF"/>
<path d="M22.5312 63.0527C22.5312 63.0527 13.7942 66.9455 10.853 81.536C9.69959 87.2165 6.32589 104.604 6.78725 120.982C7.13327 133.67 10.1609 136.813 13.6788 138.254C18.8114 140.359 33.575 138.283 37.237 137.649" stroke="#C0E7FA" stroke-width="1.26556" stroke-linecap="round" stroke-linejoin="round"/>
<path d="M28.9614 126.836C26.9429 113.081 27.6061 111.293 27.3466 97.395" stroke="#C0E7FA" stroke-width="1.26556" stroke-linecap="round" stroke-linejoin="round"/>
<path d="M83.546 119.368C82.7675 107.834 82.508 96.242 82.7098 84.6792" stroke="#C0E7FA" stroke-width="1.26556" stroke-linecap="round" stroke-linejoin="round"/>
<path d="M66.9371 133.814C72.3581 134.246 72.0697 124.01 72.0697 124.01C72.0697 124.01 62.8137 119.137 62.3523 123.491C61.9198 127.845 66.9371 133.814 66.9371 133.814Z" fill="#808194"/>
<path d="M61.8909 118.416C64.6879 118.445 70.0801 114.754 74.4918 117.493C78.9324 120.204 81.7294 123.174 81.7294 123.174C81.7294 123.174 72.8482 123.03 68.0039 125.308C63.1597 127.614 58.373 131.478 58.373 131.478L61.8909 118.416Z" fill="#EDBDA6"/>
<path d="M63.3904 117.263C62.0928 119.425 68.1193 132.113 68.7248 134.246C68.7248 134.246 54.9417 136.842 41.6199 137.418C26.1644 138.082 14.9187 137.39 11.372 134.967C7.82533 132.545 12.1506 115.331 21.3201 118.849C26.8853 120.982 35.5069 121.905 43.523 120.204C51.568 118.503 63.3904 117.263 63.3904 117.263Z" fill="#6EAFCF"/>
<path d="M43.5231 120.204C51.568 118.503 63.3904 117.263 63.3904 117.263C62.0928 119.425 68.1193 132.113 68.7249 134.246" stroke="#C0E7FA" stroke-width="1.26556" stroke-linecap="round" stroke-linejoin="round"/>
<path d="M45.5703 117.262C42.7733 116.945 36.1989 112.937 31.4988 115.157C26.7987 117.349 23.6846 119.973 23.6846 119.973C23.6846 119.973 34.7572 121.501 39.3131 124.356C43.8691 127.181 48.1655 131.564 48.1655 131.564L45.5703 117.262Z" fill="#EDBDA6"/>
<path d="M45.3396 117.205C41.7353 118.444 39.4285 121.674 39.9475 132.66C39.9475 132.66 50.7606 136.697 63.9382 138.802C79.1919 141.224 87.5829 138.831 91.3891 136.812C95.1953 134.823 96.2622 117.954 87.9866 119.079C85.0454 119.454 72.5599 123.779 63.9959 121.472C56.0662 119.367 45.3396 117.205 45.3396 117.205Z" fill="#6EAFCF"/>
<path d="M67.312 117.032C70.1089 116.224 75.0109 114.465 77.0005 113.37C79.0189 112.274 80.5472 111.092 83.0847 110.573C85.6222 110.054 86.8044 109.679 87.3234 110.717C87.8425 111.755 83.7767 112.533 82.8252 112.735C81.8448 112.937 80.3165 114.523 80.3165 114.523C80.3165 114.523 83.5749 114.033 85.3915 113.946C87.1793 113.889 88.4192 113.6 89.3995 114.263C90.3799 114.927 89.14 115.734 87.8425 115.763C86.5449 115.763 84.9878 116.484 84.9878 116.484C84.9878 116.484 87.2658 116.657 87.8425 117.089C88.4192 117.522 87.6406 118.185 85.7375 118.473C83.8632 118.733 82.681 119.108 82.681 119.108C82.681 119.108 82.0178 120.549 79.5668 120.376C77.1158 120.203 67.312 117.032 67.312 117.032Z" fill="#EDBDA6"/>
<path d="M83.719 118.358C80.057 118.964 76.9428 119.454 74.3477 119.858C74.3669 119.954 74.3765 120.05 74.3765 120.146C74.3957 120.588 74.3861 121.03 74.3477 121.472C76.5103 121.386 78.9612 121.299 80.3742 120.953C82.3349 120.463 83.027 120.319 83.719 120.031C84.9013 119.54 85.7086 118.041 83.719 118.358Z" fill="#EDBDA6"/>
<path d="M37.1216 123.174C29.8552 120.665 21.8103 119.54 14.1113 119.858" stroke="#C0E7FA" stroke-width="1.26556" stroke-linecap="round" stroke-linejoin="round"/>
<path d="M16.9371 138.975C29.8552 139.552 42.3408 137.389 54.0189 136.524" stroke="#C0E7FA" stroke-width="1.26556" stroke-linecap="round" stroke-linejoin="round"/>
<path d="M91.8217 136.784C83.546 140.936 71.4065 140.359 63.7941 138.889C58.6038 137.879 53.7595 136.236 48.7422 134.938C45.5992 134.102 43.4077 133.583 40.1205 133.006C40.1205 133.006 38.6499 123.981 41.9371 119.8" stroke="#C0E7FA" stroke-width="1.26556" stroke-linecap="round" stroke-linejoin="round"/>
<path d="M45.5703 117.263C50.7894 118.07 66.3315 123.981 75.847 122.049" stroke="#C0E7FA" stroke-width="1.26556" stroke-linecap="round" stroke-linejoin="round"/>
<path d="M64.2842 31.4494C64.2842 31.4494 64.0535 26.3168 68.3499 26.461C71.0893 26.5475 71.3199 29.0561 69.1573 32.3145C68.2634 33.6697 68.1769 36.7551 67.0524 37.7643C65.6971 38.9754 64.5437 37.1011 64.14 36.2649C63.448 34.852 64.2842 31.4494 64.2842 31.4494Z" fill="#EDBDA6"/>
<path d="M66.7928 29.0849C68.3211 28.2486 70.0223 28.3928 68.9843 30.0941C67.9751 31.7954 67.3118 32.2855 67.3984 34.1598C67.456 35.8611 65.9566 35.9187 65.9566 35.9187L66.7928 29.0849Z" fill="#E7A699"/>
<path d="M41.072 31.4494C41.072 31.4494 41.3315 26.3168 37.0063 26.461C34.267 26.5475 34.0651 29.0561 36.1989 32.3145C37.0928 33.6697 37.1793 36.7551 38.3039 37.7643C39.6591 38.9754 40.8125 37.1011 41.2162 36.2649C41.9082 34.852 41.072 31.4494 41.072 31.4494Z" fill="#EDBDA6"/>
<path d="M39.0247 29.0849C37.5253 28.2486 35.824 28.3928 36.8332 30.0941C37.8425 31.7954 38.5345 32.2855 38.448 34.1598C38.3615 35.8611 39.8898 35.9187 39.8898 35.9187L39.0247 29.0849Z" fill="#E7A699"/>
<path d="M68.6383 18.8774C68.523 20.5498 68.2058 21.6456 67.7733 24.0965C67.6579 24.7021 67.5714 25.3941 67.4561 26.1727C66.5622 32.3434 65.4376 40.7343 64.9474 41.9742C64.1401 44.0504 59.7283 47.424 57.6522 48.6351C55.5472 49.875 50.2993 49.6155 48.1943 48.4044C46.0894 47.1645 41.3604 44.0504 40.553 41.9742C40.0629 40.7055 38.9095 32.0838 38.0156 25.7978C37.9002 25.1058 37.8137 24.4714 37.6984 23.9235C37.2947 21.5014 36.9487 20.521 36.8622 18.8774C36.545 13.6583 42.3985 6.10352 52.7502 6.10352C65.0051 6.10352 68.9555 13.6583 68.6383 18.8774Z" fill="#EDBDA6"/>
<g style="mix-blend-mode:multiply">
<path d="M41.0721 14.9559C41.0721 14.9559 49.5207 12.7644 61.8621 13.4276L65.1781 11.2073C65.1781 11.2073 59.3246 7.89132 51.6834 7.94899C44.0132 8.00666 41.0721 14.9559 41.0721 14.9559Z" fill="#E1D2E3"/>
</g>
<path d="M68.1769 22.7701C68.0039 23.2507 67.8501 23.6736 67.7155 24.0388L67.7732 24.0965C67.6579 24.702 67.5714 25.3941 67.456 26.1726C67.2253 27.6721 66.9947 29.3156 66.764 30.9304L65.0339 33.0642C65.8413 30.6421 66.3603 25.5959 66.6198 23.9812V23.9523C65.4376 21.4149 64.832 18.6755 64.7744 15.9074L64.1112 11.7551L61.343 11.8705C60.9393 11.4668 54.9128 11.6975 49.6937 12.0723C43.0616 12.5914 41.072 14.9558 41.072 14.9558C40.6683 17.4645 40.1781 21.2419 38.9094 23.4333L38.8517 23.5486L38.7364 23.7217C39.0536 25.2788 39.1977 29.95 40.1205 32.5452L38.7364 30.9304C38.4769 29.1715 38.2462 27.4125 38.0155 25.7978C37.9578 25.5671 37.929 25.3653 37.9002 25.1634V25.1922C37.9002 25.1922 37.6118 24.2407 37.237 22.8854C36.9486 21.8762 36.2277 16.8013 36.0547 16.0804C36.0163 15.8497 35.9682 15.6286 35.9105 15.4172C35.305 12.2165 36.6026 0.365323 54.884 1.80707C55.1147 1.8263 55.3357 1.84552 55.5472 1.86474C61.5737 2.67212 64.313 5.49795 64.313 5.49795L66.3891 9.15999C69.8205 9.65019 70.1665 11.6398 69.388 15.5325C69.3591 15.7055 68.5229 21.8186 68.1769 22.7701Z" fill="#263238"/>
<path d="M50.1421 41.2591C50.742 41.4459 51.6942 41.5001 52.499 41.5C53.3039 41.4999 54.256 41.4464 54.8569 41.2597C55.2971 41.1229 54.6215 40.9083 54.1816 41.045C54.1617 41.0514 54.0622 41.078 54.1219 41.0631C54.1774 41.0491 54.0485 41.0786 54.0188 41.0844C53.9665 41.0946 53.9126 41.104 53.8576 41.1128C53.8208 41.1186 53.7834 41.1243 53.7454 41.1295C53.8103 41.1205 53.744 41.1295 53.7136 41.1329C53.3238 41.1764 52.9129 41.1978 52.4998 41.1962C52.094 41.1983 51.6902 41.1775 51.3071 41.1348C51.3018 41.1342 51.1635 41.1159 51.2534 41.1285C51.2218 41.1243 51.1905 41.1196 51.1595 41.1145C51.0984 41.105 51.0385 41.0947 50.9804 41.0833C50.9358 41.0746 50.8941 41.0648 50.8511 41.0555C50.9731 41.0819 50.8477 41.0532 50.8179 41.0439C50.3785 40.9071 49.7036 41.1215 50.1425 41.2585L50.1421 41.2591Z" fill="#263238"/>
<path d="M52.6662 36.9894C52.6662 36.9557 52.9819 36.8546 53.5231 36.7198C53.6584 36.6861 53.7786 36.6355 53.7936 36.5344C53.8237 36.4164 53.7486 36.2647 53.6734 36.0793C53.513 35.731 53.3427 35.3602 53.1623 34.967C52.4558 33.349 51.9447 32.0344 52.0048 32.0007C52.0499 31.9669 52.6662 33.2478 53.3727 34.849C53.5431 35.2422 53.7085 35.6186 53.8688 35.9782C53.9289 36.1467 54.0342 36.349 53.9891 36.5849C53.959 36.7029 53.8688 36.7872 53.7786 36.8209C53.6884 36.8715 53.6133 36.8715 53.5531 36.8883C53.012 36.9726 52.6662 37.0232 52.6662 36.9894Z" fill="#263238"/>
<path d="M54.9026 41.8195C54.9026 41.3932 54.7386 40.9669 54.4435 40.6389C53.9188 40.0158 53.0005 39.819 52.279 40.1798C51.5247 40.5405 51 41.426 51 42.3115C51.2952 42.9018 51.8199 43.3281 52.443 43.4921C52.5523 43.5139 52.6507 43.5249 52.7381 43.5249C53.2301 43.5905 53.7548 43.4921 54.1483 43.1969C54.5746 42.9018 54.9026 42.377 54.9026 41.8195Z" fill="#FF9A6C"/>
<path d="M50.1421 41.2591C50.742 41.4459 51.6942 41.5001 52.499 41.5C53.3039 41.4999 54.256 41.4464 54.8569 41.2597C55.2971 41.1229 54.6215 40.9083 54.1816 41.045C54.1617 41.0514 54.0622 41.078 54.1219 41.0631C54.1774 41.0491 54.0485 41.0786 54.0188 41.0844C53.9665 41.0946 53.9126 41.104 53.8576 41.1128C53.8208 41.1186 53.7834 41.1243 53.7454 41.1295C53.8103 41.1205 53.744 41.1295 53.7136 41.1329C53.3238 41.1764 52.9129 41.1978 52.4998 41.1962C52.094 41.1983 51.6902 41.1775 51.3071 41.1348C51.3018 41.1342 51.1635 41.1159 51.2534 41.1285C51.2218 41.1243 51.1905 41.1196 51.1595 41.1145C51.0984 41.105 51.0385 41.0947 50.9804 41.0833C50.9358 41.0746 50.8941 41.0648 50.8511 41.0555C50.9731 41.0819 50.8477 41.0532 50.8179 41.0439C50.3785 40.9071 49.7036 41.1215 50.1425 41.2585L50.1421 41.2591Z" fill="#263238"/>
<path d="M35.3916 58.1216L35.5069 59.1885C35.4493 59.1885 28.846 59.5057 25.9914 63.6002C22.8772 68.0697 17.9464 80.757 19.244 83.381C20.6569 86.2934 26.7699 88.9174 26.8564 88.9462L26.4239 89.9554C26.1644 89.8401 19.8495 87.1296 18.2636 83.8712C16.5912 80.4399 22.3005 67.0028 25.0975 62.9947C28.2405 58.4676 35.1609 58.1504 35.3916 58.1216Z" fill="#313858"/>
<path d="M21.8103 71.9624C23.1368 68.6175 24.7227 65.4168 25.9914 63.6002C28.8461 59.5057 35.4493 59.1885 35.507 59.1885L35.4493 58.6695L35.3916 58.1216C35.1609 58.1504 28.2405 58.4676 25.0975 62.9947C23.9153 64.6671 22.214 68.0408 20.7723 71.6452C21.1183 71.7413 21.4643 71.847 21.8103 71.9624Z" fill="#313858" stroke="#313858" stroke-width="0.376247" stroke-linecap="round" stroke-linejoin="round"/>
<path d="M26.3374 87.9656H27.9233C28.8172 87.9368 29.4804 88.7153 29.3651 89.5804C29.2497 90.4743 28.3847 91.0221 27.5196 90.7626L26.0202 90.3013C25.876 90.2724 25.8184 90.1571 25.8184 90.0417L26.0779 88.1963C26.1067 88.081 26.2221 87.9656 26.3374 87.9656Z" fill="#313858"/>
<path d="M36.4296 58.2661L36.0259 59.2753C36.0836 59.3042 42.3408 61.4091 43.9556 66.1381C45.7433 71.2707 46.9544 84.8231 45.0225 87.0146C42.8598 89.4079 36.2278 90.2441 36.1701 90.2441L36.2855 91.3398C36.5738 91.311 43.4077 90.4171 45.8298 87.7355C48.3673 84.8808 46.5795 70.4056 44.9936 65.7632C43.2058 60.5729 36.6315 58.3526 36.4296 58.2661Z" fill="#313858"/>
<path d="M45.6857 75.3076C45.3108 71.7321 44.6764 68.243 43.9556 66.1381C42.3408 61.4091 36.0836 59.3042 36.0259 59.2753L36.2278 58.7563L36.4296 58.2661C36.6315 58.3526 43.2058 60.5729 44.9936 65.7632C45.6568 67.724 46.3777 71.4437 46.7814 75.2788C46.4161 75.298 46.0509 75.3076 45.6857 75.3076Z" fill="#313858" stroke="#313858" stroke-width="0.376247" stroke-linecap="round" stroke-linejoin="round"/>
<path d="M37.4677 89.552L35.9971 89.0906C35.3628 88.9176 34.613 89.2348 34.3247 89.8115C33.8345 90.763 34.5554 91.9164 35.6511 91.8876H37.1217C37.2659 91.8876 37.3812 91.7723 37.3812 91.6569L37.6407 89.8115C37.6695 89.6961 37.583 89.5808 37.4677 89.552Z" fill="#313858"/>
<path d="M34.2382 59.5058H35.6223C35.6607 59.5058 35.6992 59.5058 35.7376 59.5058L37.064 59.9095C37.2659 59.9672 37.4677 59.8519 37.5542 59.6788L37.7561 59.2175C37.8137 59.0733 37.7849 58.9291 37.6984 58.8138L37.6407 58.7273C37.3235 58.3236 37.1505 57.8622 37.1217 57.3432L37.0352 55.7861C37.0352 55.5843 36.8622 55.4401 36.6892 55.4113L36.2855 55.3824C36.2663 55.3824 36.247 55.3824 36.2278 55.3824L35.853 55.2959C35.6799 55.2671 35.4781 55.3824 35.4204 55.5554L34.9014 57.026C34.7284 57.5162 34.44 57.9199 34.0075 58.2083L33.9498 58.2659C33.8345 58.3524 33.748 58.4966 33.7768 58.6408L33.8633 59.1598C33.8633 59.3617 34.0363 59.5058 34.2382 59.5058Z" fill="#313858"/>
<path opacity="0.3" d="M63.7364 27.6145C63.3327 29.46 61.718 30.9306 59.2958 30.9306C56.0086 30.9306 55.9221 28.7968 55.6049 27.528C55.2878 26.2593 55.3166 25.2212 55.4319 24.9617C55.7491 24.212 56.6142 24.1832 59.2093 24.1543C61.8045 24.0967 63.2462 24.0678 63.6499 24.4427C64.0824 24.8175 64.1689 25.6826 63.7364 27.6145Z" fill="white"/>
<path opacity="0.3" d="M41.793 24.4427C42.1967 24.0678 43.6384 24.0967 46.2336 24.1543C48.8576 24.1832 49.7226 24.212 50.011 24.9617C50.1263 25.2212 50.1551 26.2593 49.838 27.528C49.5208 28.7968 49.4342 30.9306 46.1471 30.9306C43.7538 30.9306 42.1102 29.46 41.7065 27.6145C41.274 25.6826 41.3605 24.8175 41.793 24.4427Z" fill="white"/>
<path fill-rule="evenodd" clip-rule="evenodd" d="M66.4757 25.1057C66.3892 25.4229 65.38 25.5959 65.207 25.6824C64.8321 25.8554 64.8609 27.1242 64.2554 28.4794C63.4769 30.2384 61.7467 31.5936 58.1135 31.3053C54.7398 31.0169 54.7975 27.4702 54.3938 26.5187C54.0478 25.6824 54.2497 25.4229 52.7502 25.4229C51.222 25.4229 51.4238 25.6824 51.049 26.5187C50.6453 27.4702 50.7029 31.0169 47.3581 31.3053C43.696 31.5936 41.8794 30.2095 41.1009 28.4794C40.4954 27.1242 40.6395 25.8554 40.2358 25.6824C40.0628 25.5959 39.0536 25.4229 38.9671 25.1057C38.8518 24.7597 38.8229 24.3272 38.8518 24.01C38.9094 23.4621 41.7353 23.2026 43.7537 23.145C45.801 23.1161 49.2035 23.0008 50.4146 23.4333C51.5103 23.8082 51.568 24.2119 52.7502 24.2119C54.1343 24.2119 53.9325 23.8082 55.0282 23.4333C56.2393 23.0008 59.6706 23.1161 61.6891 23.145C63.7075 23.2026 66.5334 23.4621 66.591 24.01C66.6199 24.3272 66.591 24.7597 66.4757 25.1057ZM50.0109 24.9616C49.7226 24.2118 48.8575 24.183 46.2335 24.1542C43.6384 24.0965 42.1966 24.0677 41.7929 24.4425C41.3604 24.8174 41.2739 25.6824 41.7064 27.6144C42.1101 29.4598 43.7537 30.9304 46.147 30.9304C49.4342 30.9304 49.5207 28.7966 49.8379 27.5279C50.1551 26.2591 50.1263 25.2211 50.0109 24.9616ZM63.6499 24.4425C63.2462 24.0677 61.8044 24.0965 59.2093 24.1542C56.6141 24.183 55.7491 24.2118 55.4319 24.9616C55.3165 25.2211 55.2877 26.2591 55.6049 27.5279C55.9221 28.7966 56.0086 30.9304 59.2958 30.9304C61.7179 30.9304 63.3327 29.4598 63.7364 27.6144C64.1689 25.6824 64.0824 24.8174 63.6499 24.4425Z" fill="#133A50"/>
<path d="M45.0566 26.6008C44.9085 27.0008 45.0043 27.9212 45.9139 28C47.1161 27.9946 47.1808 26.8817 46.7764 26.3584C46.4453 25.9298 45.4711 25.7513 45.0566 26.6008Z" fill="#211715"/>
<path d="M59.0566 26.6008C58.9085 27.0008 59.0043 27.9212 59.9139 28C61.1161 27.9946 61.1808 26.8817 60.7764 26.3584C60.4453 25.9298 59.4711 25.7513 59.0566 26.6008Z" fill="#211715"/>
<path d="M68.3499 54.6904C73.7709 68.1852 65.5241 86.8126 65.5241 86.8126" stroke="#313858" stroke-width="1.6076" stroke-miterlimit="10"/>
<path d="M68.3211 89.4078C68.3211 91.4839 66.591 93.214 64.5149 93.214C62.4099 93.214 60.7087 91.4839 60.7087 89.4078C60.7087 87.3028 62.4099 85.6016 64.5149 85.6016C66.591 85.6016 68.3211 87.3028 68.3211 89.4078Z" fill="white" stroke="#313858" stroke-width="1.5734" stroke-miterlimit="10"/>
<path d="M52.7502 136.034V178.046" stroke="#C0E7FA" stroke-width="1.26556" stroke-linecap="round" stroke-linejoin="round"/>
</g>
</svg>
