<svg width="14" height="14" viewBox="0 0 14 14" fill="none" xmlns="http://www.w3.org/2000/svg">
<path d="M6.99992 13.2708C3.94325 13.2708 1.45825 10.7858 1.45825 7.72917C1.45825 4.6725 3.94325 2.1875 6.99992 2.1875C10.0566 2.1875 12.5416 4.6725 12.5416 7.72917C12.5416 10.7858 10.0566 13.2708 6.99992 13.2708ZM6.99992 3.0625C4.42742 3.0625 2.33325 5.15667 2.33325 7.72917C2.33325 10.3017 4.42742 12.3958 6.99992 12.3958C9.57242 12.3958 11.6666 10.3017 11.6666 7.72917C11.6666 5.15667 9.57242 3.0625 6.99992 3.0625Z" fill="#292D32"/>
<path d="M9.89567 7.5625C9.89567 7.80167 9.69734 8 9.45817 8L6.5415 8C6.30234 8 6.104 7.80167 6.104 7.5625C6.104 7.32333 6.30234 7.125 6.5415 7.125L9.45817 7.125C9.69734 7.125 9.89567 7.32333 9.89567 7.5625Z" fill="#292D32"/>
<path d="M8.75 1.60547H5.25C5.01083 1.60547 4.8125 1.40714 4.8125 1.16797C4.8125 0.928802 5.01083 0.730469 5.25 0.730469H8.75C8.98917 0.730469 9.1875 0.928802 9.1875 1.16797C9.1875 1.40714 8.98917 1.60547 8.75 1.60547Z" fill="#292D32"/>
</svg>
