<svg width="73" height="73" viewBox="0 0 73 73" fill="none" xmlns="http://www.w3.org/2000/svg">
<g filter="url(#filter0_d_369_6431)">
<rect x="4.41943" y="0.806641" width="64.1086" height="64.1094" rx="32.0543" fill="#EE2F1E"/>
</g>
<path d="M40.3272 21.4603H32.6205C32.0872 21.4603 31.6605 21.0336 31.6605 20.5003C31.6605 19.9669 32.0872 19.5269 32.6205 19.5269H40.3272C40.8605 19.5269 41.2872 19.9536 41.2872 20.4869C41.2872 21.0203 40.8605 21.4603 40.3272 21.4603Z" fill="white"/>
<path d="M44.7424 36.3082C41.7957 36.3082 39.4091 38.6949 39.4091 41.6415C39.4091 44.5882 41.7957 46.9749 44.7424 46.9749C47.6891 46.9749 50.0757 44.5882 50.0757 41.6415C50.0757 38.6949 47.6891 36.3082 44.7424 36.3082ZM46.8757 43.8282C46.6757 44.0282 46.4224 44.1215 46.1691 44.1215C45.9157 44.1215 45.6624 44.0282 45.4624 43.8282L44.7557 43.1215L44.0224 43.8549C43.8224 44.0549 43.5691 44.1482 43.3157 44.1482C43.0624 44.1482 42.8091 44.0549 42.6091 43.8549C42.2224 43.4682 42.2224 42.8282 42.6091 42.4415L43.3424 41.7082L42.6357 41.0015C42.2491 40.6149 42.2491 39.9749 42.6357 39.5882C43.0224 39.2015 43.6624 39.2015 44.0491 39.5882L44.7557 40.3082L45.4224 39.6415C45.8091 39.2549 46.4491 39.2549 46.8357 39.6415C47.2224 40.0282 47.2224 40.6682 46.8357 41.0549L46.1691 41.7215L46.8757 42.4282C47.2624 42.8149 47.2624 43.4415 46.8757 43.8282Z" fill="white"/>
<path fill-rule="evenodd" clip-rule="evenodd" d="M39.4429 45.792C38.473 44.6129 37.8907 43.103 37.8907 41.4571C37.8907 37.6861 40.9477 34.629 44.7188 34.629C45.9051 34.629 47.0207 34.9316 47.9928 35.4637C48.0149 35.1915 48.0342 34.9179 48.0342 34.6347C48.0342 28.248 42.8475 23.0613 36.4742 23.0613C30.1009 23.0613 24.9142 28.248 24.9142 34.6347C24.9142 41.008 30.1009 46.1947 36.4742 46.1947C37.5045 46.1947 38.4907 46.0404 39.4429 45.792ZM36.4742 35.1947C37.0209 35.1947 37.4742 34.7413 37.4742 34.1947V27.528C37.4742 26.9813 37.0209 26.528 36.4742 26.528C35.9275 26.528 35.4742 26.9813 35.4742 27.528V34.1947C35.4742 34.7413 35.9275 35.1947 36.4742 35.1947Z" fill="white"/>
<defs>
<filter id="filter0_d_369_6431" x="0.419434" y="0.806641" width="72.1085" height="72.1094" filterUnits="userSpaceOnUse" color-interpolation-filters="sRGB">
<feFlood flood-opacity="0" result="BackgroundImageFix"/>
<feColorMatrix in="SourceAlpha" type="matrix" values="0 0 0 0 0 0 0 0 0 0 0 0 0 0 0 0 0 0 127 0" result="hardAlpha"/>
<feOffset dy="4"/>
<feGaussianBlur stdDeviation="2"/>
<feComposite in2="hardAlpha" operator="out"/>
<feColorMatrix type="matrix" values="0 0 0 0 0.933333 0 0 0 0 0.184314 0 0 0 0 0.117647 0 0 0 0.25 0"/>
<feBlend mode="normal" in2="BackgroundImageFix" result="effect1_dropShadow_369_6431"/>
<feBlend mode="normal" in="SourceGraphic" in2="effect1_dropShadow_369_6431" result="shape"/>
</filter>
</defs>
</svg>
