<svg width="18" height="18" viewBox="0 0 18 18" fill="none" xmlns="http://www.w3.org/2000/svg">
<path d="M4.75498 14.37C4.46998 14.37 4.18498 14.265 3.95998 14.04C3.52498 13.605 3.52498 12.885 3.95998 12.45L12.45 3.95998C12.885 3.52498 13.605 3.52498 14.04 3.95998C14.475 4.39498 14.475 5.11498 14.04 5.54998L5.54998 14.04C5.33998 14.265 5.03998 14.37 4.75498 14.37Z" fill="#FA0202"/>
<path d="M13.245 14.37C12.96 14.37 12.675 14.265 12.45 14.04L3.95998 5.54998C3.52498 5.11498 3.52498 4.39498 3.95998 3.95998C4.39498 3.52498 5.11498 3.52498 5.54998 3.95998L14.04 12.45C14.475 12.885 14.475 13.605 14.04 14.04C13.815 14.265 13.53 14.37 13.245 14.37Z" fill="#FA0202"/>
</svg>
