<svg width="68" height="69" viewBox="0 0 68 69" fill="none" xmlns="http://www.w3.org/2000/svg">
<circle cx="34.0152" cy="34.469" r="33.595" fill="#EEF5FF"/>
<path d="M40.3333 22.747V20.667C40.3333 20.1203 39.88 19.667 39.3333 19.667C38.7866 19.667 38.3333 20.1203 38.3333 20.667V22.667H29.6666V20.667C29.6666 20.1203 29.2133 19.667 28.6666 19.667C28.12 19.667 27.6666 20.1203 27.6666 20.667V22.747C24.0666 23.0803 22.32 25.227 22.0533 28.4137C22.0266 28.8003 22.3466 29.1203 22.72 29.1203H45.28C45.6666 29.1203 45.9866 28.787 45.9466 28.4137C45.68 25.227 43.9333 23.0803 40.3333 22.747Z" fill="#519CFF"/>
<path d="M44.6667 31.1201H23.3333C22.6 31.1201 22 31.7201 22 32.4535V40.6668C22 44.6668 24 47.3335 28.6667 47.3335H39.3333C44 47.3335 46 44.6668 46 40.6668V32.4535C46 31.7201 45.4 31.1201 44.6667 31.1201ZM30.28 42.2801C30.1467 42.4001 30 42.4935 29.84 42.5601C29.68 42.6268 29.5067 42.6668 29.3333 42.6668C29.16 42.6668 28.9867 42.6268 28.8267 42.5601C28.6667 42.4935 28.52 42.4001 28.3867 42.2801C28.1467 42.0268 28 41.6801 28 41.3335C28 40.9868 28.1467 40.6401 28.3867 40.3868C28.52 40.2668 28.6667 40.1735 28.8267 40.1068C29.1467 39.9735 29.52 39.9735 29.84 40.1068C30 40.1735 30.1467 40.2668 30.28 40.3868C30.52 40.6401 30.6667 40.9868 30.6667 41.3335C30.6667 41.6801 30.52 42.0268 30.28 42.2801ZM30.56 37.1735C30.4933 37.3335 30.4 37.4801 30.28 37.6135C30.1467 37.7335 30 37.8268 29.84 37.8935C29.68 37.9601 29.5067 38.0001 29.3333 38.0001C29.16 38.0001 28.9867 37.9601 28.8267 37.8935C28.6667 37.8268 28.52 37.7335 28.3867 37.6135C28.2667 37.4801 28.1733 37.3335 28.1067 37.1735C28.04 37.0135 28 36.8401 28 36.6668C28 36.4935 28.04 36.3201 28.1067 36.1601C28.1733 36.0001 28.2667 35.8535 28.3867 35.7201C28.52 35.6001 28.6667 35.5068 28.8267 35.4401C29.1467 35.3068 29.52 35.3068 29.84 35.4401C30 35.5068 30.1467 35.6001 30.28 35.7201C30.4 35.8535 30.4933 36.0001 30.56 36.1601C30.6267 36.3201 30.6667 36.4935 30.6667 36.6668C30.6667 36.8401 30.6267 37.0135 30.56 37.1735ZM34.9467 37.6135C34.8133 37.7335 34.6667 37.8268 34.5067 37.8935C34.3467 37.9601 34.1733 38.0001 34 38.0001C33.8267 38.0001 33.6533 37.9601 33.4933 37.8935C33.3333 37.8268 33.1867 37.7335 33.0533 37.6135C32.8133 37.3601 32.6667 37.0135 32.6667 36.6668C32.6667 36.3201 32.8133 35.9735 33.0533 35.7201C33.1867 35.6001 33.3333 35.5068 33.4933 35.4401C33.8133 35.2935 34.1867 35.2935 34.5067 35.4401C34.6667 35.5068 34.8133 35.6001 34.9467 35.7201C35.1867 35.9735 35.3333 36.3201 35.3333 36.6668C35.3333 37.0135 35.1867 37.3601 34.9467 37.6135Z" fill="#519CFF"/>
</svg>
