<svg width="94" height="94" viewBox="0 0 94 94" fill="none" xmlns="http://www.w3.org/2000/svg">
<path d="M68.1633 33.5496C64.4066 33.1963 60.65 32.9313 56.87 32.7325V32.7104L56.3566 29.8396C56.0066 27.8079 55.4933 24.7604 50.0333 24.7604H43.92C38.4833 24.7604 37.97 27.6754 37.5966 29.8175L37.1066 32.6442C34.9366 32.7767 32.7666 32.9092 30.5966 33.1079L25.8366 33.5496C24.8566 33.6379 24.1566 34.455 24.25 35.3604C24.3433 36.2659 25.1833 36.9284 26.1633 36.84L30.9233 36.3984C43.15 35.25 55.47 35.6917 67.8366 36.8621C67.9066 36.8621 67.9533 36.8621 68.0233 36.8621C68.91 36.8621 69.68 36.2217 69.7733 35.3604C69.8433 34.455 69.1433 33.6379 68.1633 33.5496Z" fill="#FA0202"/>
<path d="M63.87 39.9758C63.31 39.4237 62.54 39.1146 61.7467 39.1146H32.2533C31.46 39.1146 30.6667 39.4237 30.13 39.9758C29.5933 40.5279 29.29 41.2787 29.3367 42.0516L30.7833 64.7091C31.04 68.0658 31.3667 72.2616 39.51 72.2616H54.49C62.6333 72.2616 62.96 68.0879 63.2167 64.7091L64.6633 42.0737C64.71 41.2787 64.4067 40.5279 63.87 39.9758ZM50.8733 61.1979H43.1033C42.1467 61.1979 41.3533 60.4471 41.3533 59.5416C41.3533 58.6362 42.1467 57.8854 43.1033 57.8854H50.8733C51.83 57.8854 52.6233 58.6362 52.6233 59.5416C52.6233 60.4471 51.83 61.1979 50.8733 61.1979ZM52.8333 52.3646H41.1667C40.21 52.3646 39.4167 51.6137 39.4167 50.7083C39.4167 49.8029 40.21 49.0521 41.1667 49.0521H52.8333C53.79 49.0521 54.5833 49.8029 54.5833 50.7083C54.5833 51.6137 53.79 52.3646 52.8333 52.3646Z" fill="#FA0202"/>
<circle cx="46.631" cy="46.631" r="46.631" fill="#FA0202" fill-opacity="0.12"/>
</svg>
