<svg width="68" height="68" viewBox="0 0 68 68" fill="none" xmlns="http://www.w3.org/2000/svg">
<circle cx="34.0149" cy="34.361" r="33.595" fill="#9A81ED" fill-opacity="0.1"/>
<path d="M34 20.6667C30.5066 20.6667 27.6666 23.5067 27.6666 27C27.6666 30.4267 30.3466 33.2 33.84 33.32C33.9466 33.3067 34.0533 33.3067 34.1333 33.32C34.16 33.32 34.1733 33.32 34.2 33.32C34.2133 33.32 34.2133 33.32 34.2266 33.32C37.64 33.2 40.32 30.4267 40.3333 27C40.3333 23.5067 37.4933 20.6667 34 20.6667Z" fill="#9A81ED"/>
<path d="M40.7733 36.88C37.0533 34.4 30.9866 34.4 27.2399 36.88C25.5466 38 24.6133 39.5334 24.6133 41.1734C24.6133 42.8134 25.5466 44.3334 27.2266 45.4534C29.0933 46.7067 31.5466 47.3334 33.9999 47.3334C36.4533 47.3334 38.9066 46.7067 40.7733 45.4534C42.4533 44.32 43.3866 42.8 43.3866 41.1467C43.3733 39.52 42.4533 37.9867 40.7733 36.88ZM37.1066 40.08L33.7466 43.44C33.5866 43.6 33.3733 43.68 33.1599 43.68C32.9466 43.68 32.7333 43.5867 32.5733 43.44L30.8933 41.76C30.5733 41.44 30.5733 40.9067 30.8933 40.5867C31.2133 40.2667 31.7466 40.2667 32.0666 40.5867L33.1599 41.68L35.9333 38.9067C36.2533 38.5867 36.7866 38.5867 37.1066 38.9067C37.4399 39.2267 37.4399 39.76 37.1066 40.08Z" fill="#9A81ED"/>
</svg>
