<svg width="68" height="68" viewBox="0 0 68 68" fill="none" xmlns="http://www.w3.org/2000/svg">
<circle cx="34.1121" cy="33.7024" r="33.595" fill="#FFF6ED"/>
<path d="M35.1885 25.8401H24.8151C22.5351 25.8401 20.6685 27.7068 20.6685 29.9868V45.1334C20.6685 47.0668 22.0551 47.8934 23.7485 46.9468L28.9885 44.0268C29.5485 43.7201 30.4551 43.7201 31.0018 44.0268L36.2418 46.9468C37.9485 47.8801 39.3351 47.0668 39.3351 45.1334V29.9868C39.3351 27.7068 37.4685 25.8401 35.1885 25.8401Z" fill="#FFA24C"/>
<path d="M47.3352 24.8134V39.9601C47.3352 41.8934 45.9486 42.7067 44.2552 41.7734L41.6819 40.3334C41.4686 40.2134 41.3352 39.9867 41.3352 39.7467V29.9867C41.3352 26.6001 38.5752 23.8401 35.1886 23.8401H29.7619C29.2686 23.8401 28.9219 23.3201 29.1486 22.8934C29.8419 21.5734 31.2286 20.6667 32.8152 20.6667H43.1886C45.4686 20.6667 47.3352 22.5334 47.3352 24.8134Z" fill="#FFA24C"/>
</svg>
