<svg width="68" height="68" viewBox="0 0 68 68" fill="none" xmlns="http://www.w3.org/2000/svg">
<circle cx="33.7176" cy="33.595" r="33.595" fill="#EEF5FF"/>
<path d="M40.4287 22.5466H27.5754C24.7487 22.5466 22.4287 24.8666 22.4287 27.6933V46.48C22.4287 48.88 24.1487 49.8933 26.2554 48.7333L32.762 45.12C33.4554 44.7333 34.5754 44.7333 35.2554 45.12L41.762 48.7333C43.8687 49.9066 45.5887 48.8933 45.5887 46.48V27.6933C45.5754 24.8666 43.2687 22.5466 40.4287 22.5466ZM38.8287 32.04L33.4954 37.3733C33.2954 37.5733 33.042 37.6666 32.7887 37.6666C32.5354 37.6666 32.282 37.5733 32.082 37.3733L30.082 35.3733C29.6954 34.9866 29.6954 34.3466 30.082 33.96C30.4687 33.5733 31.1087 33.5733 31.4954 33.96L32.7887 35.2533L37.4154 30.6266C37.802 30.24 38.442 30.24 38.8287 30.6266C39.2154 31.0133 39.2154 31.6533 38.8287 32.04Z" fill="#519CFF"/>
</svg>
