<svg width="38" height="38" viewBox="0 0 38 38" fill="none" xmlns="http://www.w3.org/2000/svg">
<rect width="38" height="38" rx="10" fill="#EFF1FD"/>
<path d="M27.5 17.19H24.61C22.24 17.19 20.31 15.26 20.31 12.89V10C20.31 9.45 19.86 9 19.31 9H15.07C11.99 9 9.5 11 9.5 14.57V23.43C9.5 27 11.99 29 15.07 29H22.93C26.01 29 28.5 27 28.5 23.43V18.19C28.5 17.64 28.05 17.19 27.5 17.19ZM18.53 20.53C18.38 20.68 18.19 20.75 18 20.75C17.81 20.75 17.62 20.68 17.47 20.53L16.75 19.81V24C16.75 24.41 16.41 24.75 16 24.75C15.59 24.75 15.25 24.41 15.25 24V19.81L14.53 20.53C14.24 20.82 13.76 20.82 13.47 20.53C13.18 20.24 13.18 19.76 13.47 19.47L15.47 17.47C15.54 17.41 15.61 17.36 15.69 17.32C15.71 17.31 15.74 17.3 15.76 17.29C15.82 17.27 15.88 17.26 15.95 17.25C15.98 17.25 16 17.25 16.03 17.25C16.11 17.25 16.19 17.27 16.27 17.3C16.28 17.3 16.28 17.3 16.29 17.3C16.37 17.33 16.45 17.39 16.51 17.45C16.52 17.46 16.53 17.46 16.53 17.47L18.53 19.47C18.82 19.76 18.82 20.24 18.53 20.53Z" fill="#6274EF"/>
<path d="M24.4301 15.8105C25.3801 15.8205 26.7001 15.8205 27.8301 15.8205C28.4001 15.8205 28.7001 15.1505 28.3001 14.7505C26.8601 13.3005 24.2801 10.6905 22.8001 9.21048C22.3901 8.80048 21.6801 9.08048 21.6801 9.65048V13.1405C21.6801 14.6005 22.9201 15.8105 24.4301 15.8105Z" fill="#6274EF"/>
</svg>
