<svg width="68" height="69" viewBox="0 0 68 69" fill="none" xmlns="http://www.w3.org/2000/svg">
<circle cx="34.1104" cy="34.4686" r="33.595" fill="#FF746A" fill-opacity="0.1"/>
<path d="M39.5866 20.6667H28.4133C23.56 20.6667 20.6666 23.56 20.6666 28.4134V39.5867C20.6666 44.44 23.56 47.3334 28.4133 47.3334H39.5866C44.44 47.3334 47.3333 44.44 47.3333 39.5867V28.4134C47.3333 23.56 44.44 20.6667 39.5866 20.6667ZM31.2933 37.8667L28.2933 40.8667C28.0933 41.0667 27.84 41.16 27.5866 41.16C27.3333 41.16 27.0666 41.0667 26.88 40.8667L25.88 39.8667C25.48 39.48 25.48 38.84 25.88 38.4534C26.2666 38.0667 26.8933 38.0667 27.2933 38.4534L27.5866 38.7467L29.88 36.4534C30.2666 36.0667 30.8933 36.0667 31.2933 36.4534C31.68 36.84 31.68 37.48 31.2933 37.8667ZM31.2933 28.5334L28.2933 31.5334C28.0933 31.7334 27.84 31.8267 27.5866 31.8267C27.3333 31.8267 27.0666 31.7334 26.88 31.5334L25.88 30.5334C25.48 30.1467 25.48 29.5067 25.88 29.12C26.2666 28.7334 26.8933 28.7334 27.2933 29.12L27.5866 29.4134L29.88 27.12C30.2666 26.7334 30.8933 26.7334 31.2933 27.12C31.68 27.5067 31.68 28.1467 31.2933 28.5334ZM41.4133 40.16H34.4133C33.8666 40.16 33.4133 39.7067 33.4133 39.16C33.4133 38.6134 33.8666 38.16 34.4133 38.16H41.4133C41.9733 38.16 42.4133 38.6134 42.4133 39.16C42.4133 39.7067 41.9733 40.16 41.4133 40.16ZM41.4133 30.8267H34.4133C33.8666 30.8267 33.4133 30.3734 33.4133 29.8267C33.4133 29.28 33.8666 28.8267 34.4133 28.8267H41.4133C41.9733 28.8267 42.4133 29.28 42.4133 29.8267C42.4133 30.3734 41.9733 30.8267 41.4133 30.8267Z" fill="#FF746A"/>
</svg>
