<svg width="25" height="25" viewBox="0 0 25 25" fill="none" xmlns="http://www.w3.org/2000/svg">
<path d="M19.2503 20.1912C21.0203 18.3912 22.1103 15.9112 22.1103 13.1912C22.1103 7.67119 17.6303 3.19119 12.1103 3.19119C6.59029 3.19119 2.11029 7.67119 2.11029 13.1912C2.11029 15.9112 3.19029 18.3712 4.95029 20.1812" stroke="#01A750" stroke-width="1.5" stroke-miterlimit="10" stroke-linecap="round" stroke-linejoin="round"/>
<path d="M12.1103 22.1912C13.977 22.1912 15.4903 20.6779 15.4903 18.8112C15.4903 16.9445 13.977 15.4312 12.1103 15.4312C10.2436 15.4312 8.73029 16.9445 8.73029 18.8112C8.73029 20.6779 10.2436 22.1912 12.1103 22.1912Z" stroke="#01A750" stroke-width="1.5" stroke-miterlimit="10" stroke-linecap="round" stroke-linejoin="round"/>
<path d="M15.3603 12.6912H16.1103C16.9303 12.6912 17.6103 12.0212 17.6103 11.1912C17.6103 10.3712 16.9303 9.69119 16.1103 9.69119C15.2903 9.69119 14.6103 10.3612 14.6103 11.1912V11.9412C14.6103 12.3512 14.9503 12.6912 15.3603 12.6912Z" stroke="#01A750" stroke-width="1.5" stroke-miterlimit="10" stroke-linecap="round" stroke-linejoin="round"/>
</svg>
