<svg width="25" height="25" viewBox="0 0 25 25" fill="none" xmlns="http://www.w3.org/2000/svg">
<path d="M22.3877 15.2678V9.16089C22.3877 7.4713 21.0238 6.10742 19.3342 6.10742H5.08472C3.39513 6.10742 2.03125 7.4713 2.03125 9.16089V15.2678C2.03125 16.9574 3.39513 18.3213 5.08472 18.3213H19.3342C21.0238 18.3213 22.3877 16.9574 22.3877 15.2678Z" fill="#E83939"/>
<path d="M6.03188 19.8477H18.3882C18.714 19.8477 18.948 20.1428 18.887 20.4583C18.6122 21.9647 17.7267 22.3922 15.5994 22.3922H8.82072C6.68329 22.3922 5.80796 21.9647 5.53315 20.4583C5.47208 20.1428 5.70618 19.8477 6.03188 19.8477Z" fill="#E83939"/>
<path d="M8.82072 2.03516H15.5994C17.7368 2.03516 18.6122 2.46264 18.887 3.96902C18.948 4.28454 18.7038 4.57971 18.3882 4.57971H6.03188C5.70618 4.57971 5.47208 4.28454 5.53315 3.96902C5.80796 2.46264 6.68329 2.03516 8.82072 2.03516Z" fill="#E83939"/>
</svg>
