<svg width="46" height="46" viewBox="0 0 46 46" fill="none" xmlns="http://www.w3.org/2000/svg">
<circle cx="23.2055" cy="23.0031" r="22.3779" fill="#EAFBE2"/>
<rect x="13" y="13" width="20" height="20" rx="10" fill="#01A750"/>
<path d="M20.75 28C20.34 28 20 27.7814 20 27.5179V19.4821C20 19.2186 20.34 19 20.75 19C21.16 19 21.5 19.2186 21.5 19.4821V27.5179C21.5 27.7814 21.16 28 20.75 28Z" fill="white"/>
<path d="M24.75 28C24.34 28 24 27.7814 24 27.5179V19.4821C24 19.2186 24.34 19 24.75 19C25.16 19 25.5 19.2186 25.5 19.4821V27.5179C25.5 27.7814 25.16 28 24.75 28Z" fill="white"/>
</svg>
