<svg width="19" height="19" viewBox="0 0 19 19" fill="none" xmlns="http://www.w3.org/2000/svg">
<path d="M18.513 13.3398L18.513 5.65811C18.513 2.32144 16.5238 0.332275 13.1872 0.332275L5.51467 0.332275C2.16883 0.332275 0.179666 2.32144 0.179666 5.65811L0.179666 13.3306C0.179666 16.6673 2.16883 18.6564 5.5055 18.6564L13.1872 18.6564C16.5238 18.6656 18.513 16.6764 18.513 13.3398ZM12.1147 6.26311L14.8647 9.01311C14.9288 9.07728 14.9747 9.15061 15.0113 9.23311C15.0847 9.39811 15.0847 9.59061 15.0113 9.75561C14.9747 9.83811 14.9288 9.91144 14.8647 9.97561L12.1147 12.7256C11.8488 12.9914 11.4088 12.9914 11.143 12.7256C11.0055 12.5881 10.9413 12.4139 10.9413 12.2398C10.9413 12.0656 11.0055 11.8914 11.143 11.7539L12.7197 10.1773L7.0455 10.1773C6.66967 10.1773 6.358 9.86561 6.358 9.48978C6.358 9.11394 6.66967 8.80228 7.0455 8.80228L12.7197 8.80228L11.143 7.22561C10.8772 6.95978 10.8772 6.51978 11.143 6.25394C11.4088 5.98811 11.8397 5.99728 12.1147 6.26311ZM4.56133 15.2189C3.94717 13.3764 3.6355 11.4423 3.6355 9.49894C3.6355 7.55561 3.94717 5.62144 4.56133 3.77894C4.6805 3.42144 5.07467 3.22894 5.43217 3.34811C5.78967 3.46727 5.99133 3.86144 5.863 4.21894C4.72633 7.62894 4.72633 11.3781 5.863 14.7881C5.98217 15.1456 5.78967 15.5398 5.43217 15.6589C5.0655 15.7689 4.6805 15.5764 4.56133 15.2189Z" fill="#3D7BF2"/>
</svg>
