<svg width="45" height="46" viewBox="0 0 45 46" fill="none" xmlns="http://www.w3.org/2000/svg">
<circle cx="22.52" cy="22.9094" r="22.3779" fill="#EAFBE2"/>
<path d="M12.52 20.9095V24.9095C12.52 26.9095 13.52 27.9095 15.52 27.9095H16.95C17.32 27.9095 17.69 28.0195 18.01 28.2095L20.93 30.0395C23.45 31.6195 25.52 30.4695 25.52 27.4995V18.3195C25.52 15.3395 23.45 14.1995 20.93 15.7795L18.01 17.6095C17.69 17.7995 17.32 17.9095 16.95 17.9095H15.52C13.52 17.9095 12.52 18.9095 12.52 20.9095Z" fill="#04A651" stroke="#04A651" stroke-width="1.5"/>
<path d="M28.52 18.9094C30.3 21.2794 30.3 24.5394 28.52 26.9094" stroke="#04A651" stroke-width="1.5" stroke-linecap="round" stroke-linejoin="round"/>
<path d="M30.35 16.4094C33.24 20.2594 33.24 25.5594 30.35 29.4094" stroke="#04A651" stroke-width="1.5" stroke-linecap="round" stroke-linejoin="round"/>
</svg>
