<svg width="97" height="141" viewBox="0 0 97 141" fill="none" xmlns="http://www.w3.org/2000/svg">
<path d="M28.7152 20.1714C26.4196 26.3368 23.5008 33.8797 25.0422 40.2747C25.4685 42.0784 26.2228 43.9477 25.7965 45.7515C25.1734 48.2767 22.4514 49.982 22.189 52.5728C21.9595 54.8357 23.6648 56.7378 24.6487 58.8039C25.9605 61.5586 25.9933 64.7397 25.7965 67.8225C25.5997 70.8724 25.2062 73.9879 25.8621 76.9723C26.4852 79.9894 28.3545 82.9409 31.2732 83.892L43.3418 77.5626L38.029 25.1234L28.7152 20.1714Z" fill="#263238"/>
<path d="M88.6972 88.5492C87.287 85.0401 86.6967 81.1375 84.4338 78.0876C82.5317 75.5624 79.5474 73.7259 78.5963 70.7087C77.4485 66.9373 79.9081 62.9363 79.3506 59.0665C78.6947 54.672 74.4642 51.8516 72.0701 48.113C66.9213 40.2094 66.7901 29.1903 63.8714 22.041L43.4729 58.673C46.1949 74.6441 47.0804 89.4347 51.1142 105.143C59.3457 107.701 70.9223 108.685 79.1211 105.931C78.5745 104.138 78.0388 102.345 77.5141 100.552C78.4324 102.028 80.2361 103.045 82.007 103.209C84.6306 103.471 87.1886 102.323 89.4515 100.979C92.1407 99.4043 94.6331 97.4694 96.8631 95.2722C93.0917 95.5345 90.1074 92.0583 88.6972 88.5492Z" fill="#263238"/>
<path d="M62.1989 18.27C59.0178 12.9572 54.2297 9.44818 48.1298 8.43153C44.6536 7.84122 43.145 8.36595 40.5542 8.6611C37.9634 8.95626 35.5038 9.9401 33.7 11.8422C31.5684 14.0723 29.6663 16.6631 28.8792 19.6474C28.0593 22.6973 27.2394 25.8129 27.0099 28.994C26.7803 32.1423 27.1411 35.4218 28.6168 38.2422L36.3892 40.833C40.7838 41.6528 45.2111 42.4727 49.6712 42.112C54.0985 41.7512 58.6242 40.0459 61.5102 36.6352C65.4784 31.8799 65.38 23.5828 62.1989 18.27Z" fill="#263238"/>
<path d="M55.1151 17.155L45.1126 11.3503L42.2595 11.2519C35.9956 10.3337 30.6501 16.5647 29.863 21.6151C28.9775 27.2559 28.0921 34.1428 28.3872 38.4062C28.9119 47.0312 35.9301 48.8022 35.9301 48.8022L35.5693 56.9681L33.2081 59.231L29.7646 77.0058L42.653 80.3837L56.3941 50.9994L52.4259 51.1634L57.4763 20.4345C57.6731 18.8932 56.6237 17.483 55.1151 17.155Z" fill="#FFBF9D"/>
<path d="M41.1773 38.3405C41.1773 37.9142 41.0133 37.4879 40.7181 37.1599C40.1934 36.5368 39.2751 36.34 38.5537 36.7008C37.7994 37.0615 37.2747 37.947 37.2747 38.8325C37.5698 39.4228 38.0945 39.8491 38.7176 40.0131C38.827 40.0349 38.9253 40.0459 39.0128 40.0459C39.5047 40.1115 40.0294 40.0131 40.423 39.7179C40.8493 39.4228 41.1773 38.898 41.1773 38.3405Z" fill="#FF9A6C"/>
<path d="M32.421 29.1573C32.3554 29.7476 32.749 30.2723 33.3721 30.3707C33.9624 30.4363 34.4871 30.0427 34.5855 29.4852C34.6511 28.8949 34.2248 28.3702 33.6344 28.2718C33.0441 28.2062 32.4866 28.5997 32.421 29.1573Z" fill="#263238"/>
<path d="M31.3388 24.73C31.47 24.894 32.3554 24.3365 33.5033 24.4676C34.6839 24.566 35.5038 25.2547 35.6349 25.1235C35.7005 25.058 35.6021 24.7956 35.2414 24.4676C34.8806 24.1725 34.2903 23.8445 33.5688 23.779C32.8474 23.7134 32.1915 23.9429 31.8307 24.1725C31.4372 24.4021 31.2732 24.6644 31.3388 24.73Z" fill="#263238"/>
<path d="M37.4386 34.962C37.4386 34.8964 36.7499 34.6996 35.5693 34.4373C35.2742 34.3717 35.0118 34.2733 34.979 34.0765C34.9134 33.847 35.0774 33.5518 35.2414 33.1911C35.5912 32.5133 35.9629 31.7918 36.3564 31.0266C37.8978 27.8783 39.0128 25.3203 38.8816 25.2547C38.7832 25.1891 37.4386 27.6815 35.8973 30.797C35.5256 31.5623 35.1649 32.2947 34.815 32.9943C34.6839 33.3222 34.4543 33.7158 34.5527 34.1749C34.6183 34.4045 34.815 34.5685 35.0118 34.634C35.2086 34.7324 35.3726 34.7324 35.5037 34.7652C36.6843 34.9292 37.4386 35.0276 37.4386 34.962Z" fill="#263238"/>
<path d="M35.9301 48.7689C35.9301 48.7689 41.6036 49.6871 47.5723 46.834C47.5723 46.834 44.26 52.6059 35.8317 50.9989L35.9301 48.7689Z" fill="#FF9A6C"/>
<path d="M40.8165 36.0773C40.6198 36.0445 40.4886 37.3235 39.308 38.1106C38.1601 38.9304 36.8156 38.6681 36.7828 38.8321C36.75 38.8976 37.0779 39.0944 37.6354 39.16C38.1929 39.2584 39.0128 39.16 39.7343 38.6681C40.4558 38.1762 40.8165 37.4547 40.9149 36.9299C41.0133 36.4052 40.8821 36.0773 40.8165 36.0773Z" fill="#263238"/>
<path d="M32.3555 20.7295C32.5194 21.0247 33.4377 20.9263 34.4871 21.1231C35.5038 21.2543 36.3564 21.6478 36.6188 21.4182C36.7172 21.287 36.6516 21.0247 36.2908 20.6967C35.9629 20.3688 35.3726 20.0408 34.6511 19.9425C33.9296 19.8113 33.2737 19.9425 32.8802 20.1392C32.4538 20.336 32.2899 20.5656 32.3555 20.7295Z" fill="#263238"/>
<path d="M45.375 30.1739C45.3094 30.7642 44.7847 31.1906 44.1616 31.1578C43.5713 31.0922 43.145 30.6003 43.1778 30.01C43.2434 29.4524 43.7681 29.0261 44.3912 29.0589C44.9815 29.1245 45.4078 29.6164 45.375 30.1739Z" fill="#263238"/>
<path d="M47.1132 26.6322C46.982 26.7634 46.2277 26.0419 45.0799 25.8779C43.8992 25.7139 42.981 26.2058 42.8498 26.0419C42.817 25.9763 42.981 25.7467 43.3745 25.5172C43.8009 25.2876 44.4568 25.1236 45.1782 25.222C45.8997 25.3204 46.4901 25.6811 46.7852 25.9763C47.1132 26.3042 47.2115 26.5666 47.1132 26.6322Z" fill="#263238"/>
<path d="M46.982 22.8285C46.7196 23.058 45.8669 22.6645 44.7847 22.5005C43.7025 22.3037 42.7514 22.4021 42.5874 22.107C42.5219 21.9758 42.6858 21.7134 43.1122 21.5167C43.5385 21.3199 44.2272 21.1887 44.9815 21.3199C45.703 21.4511 46.3261 21.779 46.6868 22.0742C47.0148 22.4021 47.1132 22.6973 46.982 22.8285Z" fill="#263238"/>
<path d="M53.9345 34.3388C53.9673 33.7157 54.8528 32.3055 55.4759 32.2727C57.1812 32.1743 60.1656 32.5679 59.8048 36.7984C59.2801 42.6031 53.5738 40.8978 53.5738 40.7338C53.5738 40.6026 53.705 36.5361 53.9345 34.3388Z" fill="#FFBF9D"/>
<path d="M55.3775 38.7336C55.3775 38.7336 55.4759 38.832 55.6398 38.9304C55.771 38.996 56.0662 39.0944 56.3941 38.996C57.0172 38.832 57.6075 37.9138 57.7387 36.8643C57.8043 36.3396 57.7387 35.8149 57.5747 35.3886C57.4436 34.9622 57.1812 34.6343 56.886 34.5687C56.5909 34.4703 56.3613 34.6343 56.2629 34.7982C56.1645 34.9294 56.1973 35.0606 56.1646 35.0606C56.1646 35.0934 56.0662 34.9622 56.1318 34.7327C56.1646 34.6015 56.2301 34.4703 56.3941 34.3719C56.5253 34.2735 56.7221 34.2407 56.9516 34.2735C57.378 34.3391 57.7715 34.7982 57.9355 35.2574C58.0995 35.7493 58.1978 36.3396 58.1323 36.8971C58.0011 38.0777 57.3124 39.1272 56.4269 39.2912C56.0334 39.3568 55.7054 39.1928 55.5415 39.0616C55.3775 38.8976 55.3447 38.7664 55.3775 38.7336Z" fill="#FF9A6C"/>
<path d="M55.7055 32.3061L54.0329 33.6179C48.6545 26.6326 38.6193 9.74317 39.1768 10.727C39.1768 10.727 43.7353 9.612 48.2938 11.0878C52.8523 12.5963 61.379 16.2694 60.4279 21.7789C59.4441 27.2557 55.7055 32.3061 55.7055 32.3061Z" fill="#263238"/>
<path d="M74.169 94.6489C69.8401 89.5656 65.2816 83.9905 64.6585 77.3003C64.2978 73.4961 65.2816 69.5935 64.4617 65.8549C63.6091 62.1163 61.1167 59.0335 59.149 55.754C57.1485 52.4745 54.9512 34.2077 56.3942 30.6659L52.1308 29.3213C49.6712 35.1916 50.1631 59.4271 53.3442 64.9366C54.7216 67.3307 56.6237 69.5279 57.1813 72.2499C58.0339 76.3493 55.5743 80.547 56.2302 84.712C57.1157 90.3855 63.5435 94.6161 62.7236 100.29C66.823 99.1418 70.7256 97.2069 74.169 94.6489Z" fill="#263238"/>
<path d="M13.9247 1.51169C14.1542 1.57728 32.2899 5.3159 32.2899 5.3159L60.1984 8.92335L78.9571 9.18571L79.0227 8.07068L43.3746 1.4461L13.9575 0.724609L13.9247 1.51169Z" fill="#263238"/>
<path d="M30.0926 16.5313L32.2899 5.31541C32.2899 5.31541 43.9321 1.05206 61.4774 8.92285L64.1666 22.7295C64.1666 22.7295 54.5576 15.1211 39.6687 16.3017C39.6687 16.3017 33.6017 13.8093 30.0926 16.5313Z" fill="#455A64"/>
<path d="M63.3139 18.4334C63.3139 18.4334 56.7221 14.8916 50.5567 13.5798C44.424 12.3008 39.8983 13.2846 39.8983 13.2846C34.8151 11.2841 30.7813 13.2846 30.7813 13.2846L30.0926 16.5313C33.6017 13.8093 39.6687 16.3018 39.6687 16.3018C54.5576 15.1211 64.1666 22.7296 64.1666 22.7296L63.3139 18.4334Z" fill="#6EAFCF"/>
<path d="M39.6687 16.3015C39.6359 16.3015 39.6359 15.58 39.7015 14.3994C39.7671 13.2516 39.8655 11.6118 40.0295 9.8409C40.1934 8.13556 40.3246 6.5614 40.4558 5.2824C40.587 4.13458 40.6526 3.41309 40.7182 3.41309C40.751 3.41309 40.751 4.13458 40.6854 5.3152C40.6526 6.49581 40.5214 8.10277 40.3574 9.8737C40.1934 11.6118 40.0623 13.1532 39.9311 14.4322C39.8327 15.58 39.7343 16.3015 39.6687 16.3015Z" fill="#263238"/>
<path d="M78.9571 9.18571L43.145 2.62672L13.9247 1.51169L13.9575 0.724609L43.5057 1.38051L79.0227 8.07068L78.9571 9.18571Z" fill="#455A64"/>
<path d="M43.145 2.75727C43.0794 2.75727 43.0138 2.42932 43.0466 2.06858C43.0466 1.67504 43.145 1.37988 43.2434 1.37988C43.3418 1.37988 43.4074 1.70783 43.3746 2.06858C43.3418 2.46212 43.2434 2.75727 43.145 2.75727Z" fill="#263238"/>
<path d="M17.073 8.89022L16.0892 8.85742C14.9413 9.28376 14.6134 10.2348 14.4494 11.0547C13.7498 14.2467 13.2907 17.4606 13.072 20.6964C14.1215 20.762 15.16 20.8276 16.1875 20.8932C16.4499 20.8932 16.4171 12.8912 16.9418 20.8604C16.9418 21.1227 18.7128 21.0572 18.6472 20.762C17.7617 17.0562 17.8273 13.6783 17.7617 10.4972C17.7617 9.93966 17.6961 9.28376 17.073 8.89022Z" fill="#6EAFCF"/>
<path d="M17.073 7.51286C17.1386 6.52901 17.2588 5.55609 17.4337 4.59411C17.5977 3.80703 17.7289 2.98715 18.1224 2.29846C18.4832 1.60977 19.0407 1.05225 19.8278 0.855483C20.7788 0.658714 21.7299 1.08505 22.5498 1.51138C23.0417 1.77374 23.4352 1.05225 22.9761 0.822686C22.025 0.297967 20.9428 -0.128366 19.8278 0.0356093C18.9095 0.166789 18.1552 0.757099 17.6305 1.51138C17.1058 2.29846 16.8762 3.21672 16.6795 4.13498C16.4608 5.25001 16.3187 6.37597 16.2531 7.51286C16.2203 8.03758 17.0402 8.03758 17.073 7.51286Z" fill="#6EAFCF"/>
<path d="M17.9257 8.13611C17.8601 8.89039 17.1714 9.4807 16.3515 9.41511C15.5644 9.38231 14.9413 8.69362 15.0069 7.93934C15.0397 7.15226 15.7612 6.56195 16.5483 6.62754C17.3682 6.66033 17.9585 7.34903 17.9257 8.13611Z" fill="#6EAFCF"/>
<path d="M17.9257 8.13612C17.8929 8.10332 17.8929 8.00494 17.8273 7.77537C17.7617 7.5786 17.6305 7.28345 17.3354 7.05388C17.0402 6.82432 16.5811 6.69314 16.0892 6.82432C15.63 6.9555 15.2037 7.38183 15.1709 7.93935C15.1381 8.49686 15.4989 8.98879 15.958 9.15276C16.3843 9.34953 16.8763 9.28394 17.2042 9.08717C17.5321 8.9232 17.6961 8.62804 17.7945 8.43127C17.8601 8.2345 17.8929 8.10332 17.9257 8.13612C17.9257 8.13612 17.9585 8.2673 17.9257 8.49687C17.8601 8.72643 17.6961 9.05438 17.3354 9.31674C16.9746 9.5463 16.3843 9.67748 15.8268 9.44792C15.2693 9.25115 14.7774 8.62804 14.843 7.90655C14.8758 7.18507 15.4333 6.66035 16.0236 6.52917C16.6139 6.36519 17.1714 6.56196 17.4994 6.85712C17.8273 7.15227 17.9257 7.51302 17.9585 7.74258C17.9913 8.00494 17.9257 8.13612 17.9257 8.13612Z" fill="#263238"/>
<path d="M14.2854 18.4335C14.2526 18.4335 14.1871 17.9088 14.2526 17.0561C14.2854 16.2034 14.4166 15.0228 14.6134 13.7438C14.843 12.4648 15.1381 11.317 15.4333 10.4971C15.5644 10.1036 15.6956 9.77561 15.8268 9.57884C15.958 9.34928 16.0892 9.28369 16.0892 9.28369C16.0892 9.31649 16.0236 9.41487 15.958 9.61164C15.8596 9.84121 15.7612 10.1692 15.6628 10.5627C15.4333 11.3826 15.2037 12.5304 14.9741 13.8094C14.7446 15.0556 14.5806 16.2362 14.4822 17.0561C14.3838 17.9088 14.351 18.4335 14.2854 18.4335Z" fill="#263238"/>
<path d="M15.8924 16.2689C15.794 16.2689 15.6956 14.7275 15.8268 12.7926C15.958 10.8577 16.3187 9.31635 16.3843 9.34915C16.4827 9.34915 16.3187 10.8905 16.1548 12.8254C16.0236 14.7275 15.9908 16.2689 15.8924 16.2689Z" fill="#263238"/>
<path d="M16.9746 11.3171C16.8762 11.3171 16.7778 10.8908 16.7778 10.3661C16.7778 9.84138 16.8434 9.41504 16.9418 9.41504C17.0402 9.41504 17.1058 9.84138 17.1058 10.3661C17.1386 10.8908 17.073 11.3171 16.9746 11.3171Z" fill="#263238"/>
<path d="M21.3036 0.921387L23.632 0.954181V1.74126L21.1068 1.5117L21.3036 0.921387Z" fill="#455A64"/>
<path d="M17.7945 124.066C17.4993 124.493 10.8092 147.285 11.8258 154.664C12.8425 162.076 17.7945 183.983 17.7945 183.983C17.7945 183.983 20.8444 196.478 20.2541 201.397C19.6638 206.349 19.8934 222.845 21.5659 232.749C23.468 244.162 25.5013 264.658 25.5013 264.658L40.2263 263.511L39.5376 192.247L43.1778 164.24L45.2111 136.824L17.7945 124.066Z" fill="#263238"/>
<path d="M68.3316 125.312C68.6267 125.739 75.3169 148.531 74.3002 155.943C73.2836 163.322 68.3316 185.229 68.3316 185.229C68.3316 185.229 65.2816 197.724 65.8719 202.643C66.4622 207.595 65.4456 223.993 64.5601 233.995C63.5763 245.244 61.1167 264.757 61.1167 264.757L45.8342 263.773L46.5557 193.526L42.9482 165.519L40.9149 138.07L68.3316 125.312Z" fill="#263238"/>
<path d="M13.4 126.69C13.0721 127.838 1.42984 210.317 3.46313 215.204C5.49642 220.09 14.3838 221.172 14.3838 221.172C14.3838 221.172 15.0725 239.8 30.5518 237.373C46.031 234.914 63.3139 218.45 63.3139 218.45C63.3139 218.45 64.5601 225.37 67.4133 224.157C70.2665 222.943 79.2851 211.465 80.4001 211.465C81.5151 211.465 71.5127 107.112 72.6277 105.8C73.7427 104.521 65.4784 55.5251 65.4784 55.5251L52.754 53.6558L39.5376 68.1511L33.5689 55.5251L22.5498 60.018L16.0564 62.412L13.4 126.69Z" fill="#455A64"/>
<path opacity="0.3" d="M31.6996 106.685C32.0932 107.701 50.5567 142.628 54.1642 143.218C57.8044 143.841 72.7917 132.79 73.3492 129.477L73.0869 119.475L43.0467 98.814" fill="black"/>
<path d="M66.659 55.5244C66.659 55.5244 73.5788 56.9674 74.7594 62.8377C75.9072 68.708 82.9253 92.8451 81.4824 100.421C80.0722 107.996 70.0369 131.346 63.5107 135.446C57.0173 139.512 56.8533 138.889 56.8533 138.889C56.8533 138.889 36.0285 111.013 35.3726 106.947C34.7167 102.913 34.7167 102.913 34.7167 102.913L60.6248 92.9435L62.1333 65.2645L66.659 55.5244Z" fill="#455A64"/>
<path d="M34.192 55.5253L35.7662 52.5738L40.3247 58.0506L51.0815 49.9502L51.7374 52.9345L52.754 53.656L40.3247 69.1353L37.5371 68.1514L34.192 55.5253Z" fill="white"/>
<path d="M17.8929 61.1328L35.2414 107.57L67.8397 55.5249L52.0981 52.9341L39.7999 65.7241L33.9952 54.5738L17.8929 61.1328Z" fill="#6EAFCF"/>
<path opacity="0.3" d="M12.7441 131.117C12.7441 131.117 15.0726 136.102 18.7128 133.38C26.1901 127.838 28.9449 111.145 28.9449 111.145L35.2415 107.57H39.5376L41.1774 101.93L46.5558 99.5357C46.5558 99.5357 51.9013 100.815 54.1642 98.8142C56.4598 96.8465 60.3952 90.7139 60.3952 90.7139L46.7197 90.9434L14.679 118.655L12.7441 131.117Z" fill="black"/>
<path d="M0.970734 96.0592C0.970734 95.6984 4.64377 79.6289 4.64377 79.6289C4.64377 79.6289 9.53022 69.692 11.6947 66.019C13.892 62.3787 16.8435 62.2476 16.8435 62.2476L22.5498 74.2505L20.287 93.534L30.5518 93.0748C30.5518 93.0748 26.3212 117.868 22.5498 124.132C18.7784 130.428 15.7613 131.117 15.7613 131.117C15.7613 131.117 7.79208 116.294 4.51259 108.488C1.42986 101.208 1.33148 102.684 0.970734 96.0592Z" fill="#455A64"/>
<path d="M7.75928 93.8949C7.75928 93.8621 8.2184 93.5997 9.00548 93.2718C9.79256 92.9438 10.9076 92.5503 12.1866 92.3207C13.4984 92.0911 14.679 92.1239 15.5317 92.2551C16.3843 92.3535 16.8763 92.5503 16.8763 92.5831C16.8435 92.6814 14.7774 92.1895 12.2522 92.6487C9.72697 93.1078 7.82487 93.9932 7.75928 93.8949Z" fill="#263238"/>
<path d="M10.7764 88.5489C10.8092 88.4833 12.449 88.8769 14.1871 90.0247C15.9253 91.1725 16.9419 92.5499 16.8763 92.5827C16.7779 92.6483 15.6957 91.4349 13.9904 90.3198C12.3178 89.2048 10.7436 88.6801 10.7764 88.5489Z" fill="#263238"/>
<path d="M63.4779 110.325C63.4779 110.358 63.1828 110.26 62.658 110.096C62.1333 109.932 61.4118 109.637 60.4936 109.276C58.6899 108.587 56.1974 107.472 53.5739 106.062C50.9503 104.652 48.6874 103.176 47.0804 102.061C46.2934 101.503 45.6703 101.011 45.2439 100.683C44.8176 100.356 44.5552 100.159 44.588 100.126C44.588 100.126 44.8504 100.257 45.3095 100.585C45.8124 100.913 46.4464 101.339 47.2116 101.864C48.8514 102.914 51.147 104.357 53.7378 105.767C56.3614 107.177 58.7882 108.292 60.592 109.079C61.4446 109.429 62.1552 109.724 62.7236 109.964C63.2156 110.194 63.4779 110.292 63.4779 110.325Z" fill="#263238"/>
<path d="M68.8235 102.487C68.8235 102.52 68.4955 102.52 67.9052 102.52C67.3149 102.487 66.4623 102.454 65.38 102.389C63.2811 102.257 60.3296 101.962 57.1485 101.47C53.9346 100.946 51.0814 100.323 49.0153 99.7978C47.9659 99.5355 47.146 99.3059 46.5885 99.1091C46.031 98.9451 45.703 98.8468 45.703 98.814C45.703 98.814 46.031 98.8468 46.6213 99.0107C47.2553 99.1419 48.0752 99.3277 49.0809 99.5682C51.147 100.027 54.0002 100.618 57.1813 101.11C60.3952 101.634 63.2811 101.962 65.4128 102.159C66.4185 102.247 67.2493 102.323 67.9052 102.389C68.4955 102.421 68.8235 102.454 68.8235 102.487Z" fill="#263238"/>
<path d="M70.2993 90.0575C70.2993 90.1559 68.5611 90.3855 66.4623 90.8118C64.3634 91.2381 62.658 91.6973 62.6252 91.5989C62.6252 91.5005 64.265 90.9102 66.3967 90.4839C68.5283 90.0575 70.2993 89.9591 70.2993 90.0575Z" fill="#263238"/>
<path d="M30.7485 232.092C30.7267 232.092 30.7158 231.994 30.7158 231.797C30.7158 231.557 30.7158 231.24 30.7158 230.846C30.7158 229.994 30.7158 228.78 30.7158 227.206C30.7158 224.058 30.7486 219.532 30.8141 213.891C30.9781 202.643 31.3061 187.098 31.962 169.946C32.5851 152.794 33.4377 137.282 34.1264 126.034C34.4872 120.426 34.7823 115.9 35.0447 112.752C35.1431 111.21 35.2415 109.997 35.3071 109.144C35.3289 108.751 35.3508 108.434 35.3726 108.193C35.3945 107.996 35.4054 107.898 35.4054 107.898C35.4273 107.898 35.4273 107.996 35.4054 108.193C35.4054 108.434 35.3945 108.751 35.3726 109.144C35.307 109.997 35.2415 111.21 35.1759 112.752C34.9791 115.933 34.7167 120.458 34.3888 126.066C33.7329 137.282 32.9458 152.827 32.2899 169.979C31.634 187.131 31.2733 202.643 31.0765 213.891C30.9781 219.499 30.8797 224.058 30.8469 227.206C30.8141 228.78 30.7813 229.994 30.7813 230.846C30.7595 231.24 30.7485 231.557 30.7485 231.797C30.7485 231.994 30.7485 232.092 30.7485 232.092Z" fill="#263238"/>
<path d="M25.9277 114.687C26.2884 112.916 27.633 106.422 29.5351 97.1414C29.8303 95.6984 30.1255 94.321 30.3878 93.0093L30.5518 93.206C28.6169 93.3044 26.8132 93.4028 25.1734 93.5012C22.6482 93.4028 20.5821 93.1732 19.1391 92.9765C18.4176 92.8781 17.8273 92.7797 17.4666 92.7141C17.073 92.6485 16.8763 92.5829 16.8763 92.5829C16.8763 92.5501 17.073 92.5829 17.4666 92.6157C17.9039 92.6813 18.4614 92.7469 19.1391 92.8125C20.5821 92.9765 22.6482 93.1404 25.1734 93.206H25.1406C26.7804 93.1076 28.5841 92.9765 30.5518 92.8781L30.7485 92.8453L30.7158 93.0748C30.4534 94.3866 30.1582 95.764 29.8631 97.207C28.8792 102.061 27.961 106.422 27.2395 109.604C26.8787 111.178 26.5836 112.457 26.354 113.342C26.2447 113.779 26.1463 114.118 26.0589 114.359C25.9933 114.577 25.9496 114.687 25.9277 114.687Z" fill="#263238"/>
<path d="M17.6634 77.4319C17.8929 77.4975 21.4676 81.3017 21.9595 82.7119C22.4186 84.0893 25.1734 93.3375 25.1734 93.3375C25.1734 93.3375 19.1391 93.1735 17.6634 92.5176C16.2204 91.8289 15.2693 91.0419 15.2693 91.0419L11.9242 88.2215C11.9242 88.2215 9.79256 87.4344 9.79256 85.8275L10.1533 85.3683L13.5312 86.3522C13.5312 86.3522 10.2845 85.0404 9.79256 83.827C9.33343 82.6463 9.79256 82.4168 9.79256 82.4168L16.4827 84.5812L13.7935 82.4824C13.7935 82.4824 10.4813 81.4329 10.6124 80.1539L10.8748 79.6948L14.8758 80.3507L18.0897 81.9577C18.0897 81.9577 16.5483 79.1701 16.5483 78.0223C16.5483 76.9072 17.6634 77.4319 17.6634 77.4319Z" fill="#FFBF9D"/>
<path d="M18.68 90.2218C18.6472 90.2218 18.4505 89.9266 18.0569 89.5003C17.6306 89.074 17.0403 88.5164 16.286 87.9917C14.8102 86.9423 13.4 86.4504 13.4328 86.352C13.4656 86.2536 14.9414 86.6471 16.4828 87.7294C17.2371 88.2541 17.8602 88.8444 18.2209 89.3363C18.6144 89.8282 18.7128 90.189 18.68 90.2218Z" fill="#FF9A6C"/>
<path d="M20.2214 87.9918C20.123 88.0573 19.3031 87.2047 18.2537 86.2536C17.2043 85.2698 16.3188 84.5155 16.3516 84.4171C16.4172 84.3515 17.4338 85.0074 18.4833 85.9913C19.5655 86.9751 20.287 87.9262 20.2214 87.9918Z" fill="#FF9A6C"/>
<path d="M22.1235 87.3362C22.0579 87.4018 21.0413 86.1228 20.0574 84.4175C19.5327 83.5648 19.2048 82.7121 18.7784 82.3186C18.3193 81.8594 17.893 81.925 17.893 81.8594C17.8602 81.8266 18.3521 81.6627 18.9096 82.1218C19.2048 82.3514 19.4343 82.6793 19.6311 83.0401C19.8716 83.4336 20.1121 83.8381 20.3526 84.2535C21.3364 85.9588 22.1891 87.2706 22.1235 87.3362Z" fill="#FF9A6C"/>
<path d="M55.148 53.6556C55.148 53.6556 55.0605 53.754 54.8856 53.9508C54.6889 54.1913 54.4374 54.4864 54.1313 54.8362C53.4098 55.6233 52.426 56.7056 51.2126 58.0174C48.7202 60.7393 45.3095 64.4124 41.5381 68.4789C40.8166 69.2332 40.0951 70.0203 39.4064 70.7418L39.2424 70.9058L39.1112 70.709C36.7828 66.5112 34.7167 62.8382 33.241 60.1162C32.5195 58.8044 31.9292 57.755 31.5028 56.9679C31.3279 56.64 31.1858 56.3557 31.0765 56.1152C30.9672 55.9185 30.9125 55.8201 30.9125 55.8201C30.9344 55.8201 31 55.9076 31.1093 56.0825C31.2405 56.3011 31.4154 56.5853 31.634 56.9351C32.0603 57.6894 32.6834 58.7389 33.4377 60.0179C34.9463 62.707 37.0452 66.3801 39.4064 70.545L39.144 70.5122C39.8327 69.7908 40.5542 69.0037 41.2757 68.2166C45.0799 64.1828 48.5234 60.5426 51.0486 57.8534C52.262 56.5744 53.2787 55.5249 54.033 54.7707C54.3609 54.4208 54.6342 54.1366 54.8528 53.918C55.0277 53.7212 55.1261 53.6338 55.148 53.6556Z" fill="#263238"/>
<path d="M39.5048 91.2383C39.2753 91.3039 30.519 93.1404 30.519 93.1404L27.1411 109.931L33.3394 105.57C33.3394 105.57 38.8817 104.881 39.0785 104.881C39.2425 104.881 39.5048 91.2383 39.5048 91.2383Z" fill="white"/>
<path d="M71.3159 47.9489L54.1642 85.4992L60.4936 88.8771L77.2846 50.4086C77.2846 50.4086 75.9072 45.9812 71.3159 47.9489Z" fill="#E0E0E0"/>
<path d="M72.7261 47.6866C72.7917 47.7194 69.6761 55.1311 65.7407 64.2153C61.8053 73.3323 58.5259 80.6784 58.4275 80.6456C58.3619 80.6128 61.4774 73.2011 65.4128 64.0841C69.381 54.9999 72.6277 47.6538 72.7261 47.6866Z" fill="#263238"/>
<path d="M52.6228 81.2358L47.3428 88.2868L39.5048 91.5335L39.2752 100.847L47.1132 96.879C47.1132 96.879 49.3433 97.371 50.5239 96.6823C51.7045 96.0264 55.5743 92.4189 55.5743 92.4189L58.2635 92.8453C58.2635 92.8453 57.5748 93.4684 57.8044 94.321C58.034 95.1737 58.985 95.0425 58.985 95.0425C58.985 95.0425 60.8215 94.1243 60.8871 93.5668C60.9199 93.0092 60.8871 92.6485 60.8871 92.6485C60.8871 92.6485 61.6086 92.6485 61.9038 91.7958C62.1989 90.9432 62.2973 90.3856 62.2973 90.3856C62.2973 90.3856 63.3795 89.6314 63.4451 88.6147C63.4779 87.5981 63.4779 87.5981 63.4779 87.5981C63.4779 87.5981 64.3962 87.5325 64.5602 86.8438C64.7569 86.1879 64.7897 84.0562 64.5602 83.5971C64.3634 83.1708 62.0678 80.3176 61.1167 80.3176C60.1328 80.3176 53.4755 80.1208 52.6228 81.2358Z" fill="#FFBF9D"/>
<path d="M60.9854 92.9438C60.9199 92.9438 60.9199 92.5175 60.8215 91.8616C60.7559 91.5664 60.6247 91.1729 60.3623 90.8777C60.0672 90.5826 59.6081 90.4186 59.1489 90.2218C57.2468 89.3692 55.7382 88.6149 55.771 88.5493C55.8038 88.4509 57.378 89.074 59.2801 89.8939C59.7392 90.1234 60.2312 90.2874 60.5919 90.681C60.9198 91.0417 61.0182 91.5008 61.051 91.8288C61.1166 92.5503 61.0182 92.9438 60.9854 92.9438Z" fill="#FF9A6C"/>
<path d="M61.8709 90.8776C61.8381 90.9104 61.6742 90.3857 61.6742 89.5658C61.6414 89.1395 61.6414 88.6475 61.4446 88.1884C61.2478 87.7293 60.7559 87.4013 60.1984 87.1718C57.8699 86.2535 55.9022 85.6632 55.935 85.5648C55.935 85.532 56.4598 85.6304 57.2468 85.8272C58.0339 86.0567 59.149 86.3847 60.3296 86.8766C60.8871 87.1062 61.5102 87.4669 61.7397 88.0572C61.9365 88.6147 61.9037 89.1395 61.9037 89.533C61.8381 90.3857 61.9037 90.8776 61.8709 90.8776Z" fill="#FF9A6C"/>
<path d="M55.7055 82.9416C55.7055 82.876 56.2958 82.9744 57.2141 83.1712C58.1323 83.4007 59.3785 83.6959 60.7887 84.0567C61.4446 84.2206 62.2317 84.3518 62.6908 84.9093C63.1172 85.4668 63.1827 86.0571 63.2155 86.5491C63.2483 87.5001 63.3467 88.0248 63.3139 88.0576C63.3139 88.0576 63.2155 87.9265 63.1499 87.6641C63.0844 87.4017 63.0516 87.0082 62.986 86.5491C62.9204 86.1227 62.822 85.5324 62.4285 85.1061C62.0677 84.6798 61.379 84.5486 60.6903 84.3846C59.3129 84.0239 58.0667 83.6959 57.1485 83.4335C56.263 83.1712 55.7055 82.9744 55.7055 82.9416Z" fill="#FF9A6C"/>
<path d="M61.2807 69.9547C61.2807 69.9547 65.1505 69.1677 67.4461 72.9391L68.9219 69.5284C68.9219 69.5284 67.3805 65.7242 62.6253 66.9376L61.2807 69.9547Z" fill="#6EAFCF"/>
<path d="M68.7251 69.0037C68.5283 69.1021 67.774 68.1183 67.1181 66.249C66.7902 65.3307 66.495 64.2157 66.3966 62.8383C66.3638 62.1496 66.3638 61.3953 66.659 60.6082C66.9542 59.8539 67.4789 58.9029 68.6923 58.6077C68.9874 58.5421 69.3482 58.5421 69.6434 58.6405C69.9713 58.7389 70.2336 58.9357 70.4304 59.1324C70.824 59.4932 71.0535 60.0179 71.1519 60.477C71.2175 60.9034 71.2175 61.3297 71.1847 61.6577C71.1628 62.0075 71.141 62.3463 71.1191 62.6743C70.9552 63.9533 70.66 65.1011 70.332 66.0522C69.6761 67.8887 68.9218 68.8725 68.7251 68.7742C68.4955 68.6758 68.8235 67.528 69.1514 65.7242C69.3154 64.806 69.4794 63.7237 69.545 62.5431C69.545 61.9528 69.6105 61.2313 69.5122 60.805C69.4466 60.6082 69.3482 60.4442 69.2498 60.3459C69.1514 60.2475 69.1186 60.2475 69.0202 60.2803C68.9219 60.2803 68.7251 60.3786 68.5939 60.5426C68.4627 60.7066 68.3315 60.9362 68.2332 61.1657C68.0364 61.6577 67.9708 62.248 67.9708 62.8055C67.9708 63.9533 68.1348 65.0683 68.266 65.9538C68.5939 67.7575 68.9546 68.8726 68.7251 69.0037Z" fill="#6EAFCF"/>
<path d="M68.4299 69.0037C68.3971 68.9054 68.5611 68.6758 68.9874 68.3806C69.4138 68.1183 70.1352 67.7903 71.0535 67.6591C72.0046 67.528 73.1524 67.5936 74.3658 68.0199C74.9561 68.2495 75.5464 68.5774 76.1039 69.0037C76.3991 69.2333 76.6614 69.4629 76.9238 69.8236C77.055 69.9876 77.1862 70.2172 77.2845 70.4467C77.3939 70.6872 77.4376 70.9496 77.4157 71.2338C77.4157 71.529 77.3501 71.8241 77.219 72.0865C77.055 72.3816 76.8254 72.6112 76.5631 72.7752C76.0055 73.0703 75.5136 73.0375 75.1529 73.0047C74.7593 72.9719 74.4642 72.9063 74.1362 72.8407C73.8301 72.7533 73.535 72.6658 73.2508 72.5784C72.1029 72.1849 71.1191 71.6273 70.3976 71.1026C68.9218 70.0204 68.3643 69.0037 68.5283 68.8726C68.7251 68.6758 69.5777 69.3317 71.0207 70.0532C71.775 70.4139 72.6605 70.8075 73.6771 71.0698C73.9395 71.1354 74.2127 71.1901 74.497 71.2338C74.7593 71.2666 75.0545 71.3322 75.284 71.365C75.5136 71.365 75.6776 71.3322 75.7104 71.2994C75.6776 71.2666 75.776 71.3322 75.7104 71.2994C75.7104 71.2994 75.7104 71.2666 75.7104 71.201C75.7432 71.037 75.5136 70.6435 75.0545 70.3155C74.661 69.9876 74.2018 69.6924 73.7427 69.4957C72.8572 69.0693 71.9062 68.9054 71.1191 68.8726C69.5449 68.807 68.5611 69.2333 68.4299 69.0037Z" fill="#6EAFCF"/>
</svg>
