<svg width="25" height="25" viewBox="0 0 25 25" fill="none" xmlns="http://www.w3.org/2000/svg">
<path d="M12.0205 2.51367C9.40051 2.51367 7.27051 4.64367 7.27051 7.26367C7.27051 9.83367 9.28051 11.9137 11.9005 12.0037C11.9805 11.9937 12.0605 11.9937 12.1205 12.0037C12.1405 12.0037 12.1505 12.0037 12.1705 12.0037C12.1805 12.0037 12.1805 12.0037 12.1905 12.0037C14.7505 11.9137 16.7605 9.83367 16.7705 7.26367C16.7705 4.64367 14.6405 2.51367 12.0205 2.51367Z" fill="#414141" fill-opacity="0.42"/>
<path d="M17.1005 14.6637C14.3105 12.8037 9.76047 12.8037 6.95047 14.6637C5.68047 15.5137 4.98047 16.6637 4.98047 17.8937C4.98047 19.1237 5.68047 20.2637 6.94047 21.1037C8.34047 22.0437 10.1805 22.5137 12.0205 22.5137C13.8605 22.5137 15.7005 22.0437 17.1005 21.1037C18.3605 20.2537 19.0605 19.1137 19.0605 17.8737C19.0505 16.6437 18.3605 15.5037 17.1005 14.6637Z" fill="#414141" fill-opacity="0.42"/>
</svg>
