<svg width="25" height="25" viewBox="0 0 25 25" fill="none" xmlns="http://www.w3.org/2000/svg">
<path d="M21.3622 8.67991L14.8122 3.43991C13.5322 2.41991 11.5322 2.40991 10.2622 3.42991L3.71219 8.67991C2.77219 9.42991 2.20219 10.9299 2.40219 12.1099L3.66219 19.6499C3.95219 21.3399 5.52219 22.6699 7.23219 22.6699H17.8322C19.5222 22.6699 21.1222 21.3099 21.4122 19.6399L22.6722 12.0999C22.8522 10.9299 22.2822 9.42991 21.3622 8.67991ZM13.2822 18.6699C13.2822 19.0799 12.9422 19.4199 12.5322 19.4199C12.1222 19.4199 11.7822 19.0799 11.7822 18.6699V15.6699C11.7822 15.2599 12.1222 14.9199 12.5322 14.9199C12.9422 14.9199 13.2822 15.2599 13.2822 15.6699V18.6699Z" fill="#414141" fill-opacity="0.42"/>
</svg>
