<svg width="25" height="25" viewBox="0 0 25 25" fill="none" xmlns="http://www.w3.org/2000/svg">
<path d="M13.3846 6.51367H6.98458C6.72458 6.51367 6.47458 6.52367 6.23458 6.55367C3.54458 6.78367 2.19458 8.37367 2.19458 11.3037V15.3037C2.19458 19.3037 3.79458 20.0937 6.98458 20.0937H7.38458C7.60458 20.0937 7.89458 20.2437 8.02458 20.4137L9.22458 22.0137C9.75458 22.7237 10.6146 22.7237 11.1446 22.0137L12.3446 20.4137C12.4946 20.2137 12.7346 20.0937 12.9846 20.0937H13.3846C16.3146 20.0937 17.9046 18.7537 18.1346 16.0537C18.1646 15.8137 18.1746 15.5637 18.1746 15.3037V11.3037C18.1746 8.11367 16.5746 6.51367 13.3846 6.51367ZM6.69458 14.5137C6.13458 14.5137 5.69458 14.0637 5.69458 13.5137C5.69458 12.9637 6.14458 12.5137 6.69458 12.5137C7.24458 12.5137 7.69458 12.9637 7.69458 13.5137C7.69458 14.0637 7.24458 14.5137 6.69458 14.5137ZM10.1846 14.5137C9.62458 14.5137 9.18458 14.0637 9.18458 13.5137C9.18458 12.9637 9.63458 12.5137 10.1846 12.5137C10.7346 12.5137 11.1846 12.9637 11.1846 13.5137C11.1846 14.0637 10.7446 14.5137 10.1846 14.5137ZM13.6846 14.5137C13.1246 14.5137 12.6846 14.0637 12.6846 13.5137C12.6846 12.9637 13.1346 12.5137 13.6846 12.5137C14.2346 12.5137 14.6846 12.9637 14.6846 13.5137C14.6846 14.0637 14.2346 14.5137 13.6846 14.5137Z" fill="#414141" fill-opacity="0.42"/>
<path d="M22.1746 7.30367V11.3037C22.1746 13.3037 21.5546 14.6637 20.3146 15.4137C20.0146 15.5937 19.6646 15.3537 19.6646 15.0037L19.6746 11.3037C19.6746 7.30367 17.3846 5.01367 13.3846 5.01367L7.29458 5.02367C6.94458 5.02367 6.70458 4.67367 6.88458 4.37367C7.63458 3.13367 8.99458 2.51367 10.9846 2.51367H17.3846C20.5746 2.51367 22.1746 4.11367 22.1746 7.30367Z" fill="#414141" fill-opacity="0.42"/>
</svg>
