<svg width="25" height="25" viewBox="0 0 25 25" fill="none" xmlns="http://www.w3.org/2000/svg">
<path d="M16.5594 2.51367H8.17938C4.53938 2.51367 2.36938 4.68367 2.36938 8.32367V16.6937C2.36938 20.3437 4.53938 22.5137 8.17938 22.5137H16.5494C20.1894 22.5137 22.3594 20.3437 22.3594 16.7037V8.32367C22.3694 4.68367 20.1994 2.51367 16.5594 2.51367ZM12.3694 19.0937C9.19938 19.0937 6.61938 16.5137 6.61938 13.3437C6.61938 12.2037 6.94938 11.0937 7.58938 10.1537C7.81938 9.81367 8.28938 9.71367 8.62938 9.94367C8.96939 10.1737 9.06939 10.6437 8.83939 10.9837C8.36939 11.6837 8.12938 12.5037 8.12938 13.3437C8.12938 15.6837 10.0394 17.5937 12.3794 17.5937C14.7194 17.5937 16.6294 15.6837 16.6294 13.3437C16.6294 11.1037 14.8894 9.26367 12.6894 9.10367L13.0994 9.40367C13.4294 9.64367 13.5094 10.1137 13.2594 10.4537C13.0194 10.7837 12.5494 10.8637 12.2094 10.6137L10.2694 9.20367C10.1994 9.15367 10.1394 9.09367 10.0894 9.02367C10.0794 9.01367 10.0694 9.00367 10.0594 8.98367C10.0194 8.91367 9.98939 8.83367 9.96939 8.75367C9.94939 8.65367 9.94938 8.56367 9.95938 8.46367C9.96939 8.42367 9.97938 8.38367 9.98938 8.34367C10.0094 8.27367 10.0494 8.21367 10.0894 8.14367C10.1094 8.13367 10.1294 8.11367 10.1494 8.09367L11.8094 6.19367C12.0794 5.88367 12.5594 5.85367 12.8694 6.12367C13.1794 6.39367 13.2094 6.87367 12.9394 7.18367L12.5694 7.61367C15.6494 7.71367 18.1294 10.2537 18.1294 13.3637C18.1194 16.5137 15.5394 19.0937 12.3694 19.0937Z" fill="#414141" fill-opacity="0.42"/>
</svg>
